
<svg width="208" height="126" viewBox="0 0 208 126" fill="none" xmlns="http://www.w3.org/2000/svg">
<mask id="path-1-outside-1" maskUnits="userSpaceOnUse" x="0" y="0" width="208" height="126" fill="black">
<rect fill="white" width="208" height="126"/>
<path d="M115.573 120.66C113.427 120.083 111.879 118.974 111.038 117.377C110.64 116.623 110.551 116.113 110.551 114.25C110.551 112.231 110.618 111.899 111.237 110.59C113.162 106.487 116.878 103.936 120.816 103.936C123.537 103.958 125.019 104.912 125.373 106.886C125.992 110.124 121.922 113.54 118.36 112.786C116.303 112.342 115.175 110.479 116.657 109.947C117.055 109.814 117.63 109.703 117.962 109.703C119.046 109.703 119.931 108.217 119.245 107.529C118.449 106.731 116.568 107.551 114.821 109.459C112.343 112.143 111.635 115.115 113.007 117.044C115.175 120.128 120.617 120.394 124.842 117.643C127.806 115.736 130.417 112.963 133.005 109.037C134.244 107.13 135.438 105.023 135.438 104.712C135.438 104.646 134.664 104.601 133.713 104.601C131.633 104.601 131.169 104.357 131.279 103.271L131.346 102.494L138.933 102.428C146.035 102.383 146.499 102.405 146.521 102.76C146.565 103.603 146.433 104.269 146.189 104.424C146.057 104.513 144.862 104.601 143.513 104.601L141.079 104.624L138.867 107.773C135.261 112.897 131.036 116.8 126.678 119.019C123.205 120.771 118.559 121.481 115.573 120.66Z"/>
<path d="M50.9996 103.825C47.5707 102.893 45.5577 100.498 45.5355 97.2814C45.5134 95.2409 46.3098 93.6661 48.4777 91.4924C51.1987 88.7864 54.2073 87.0342 61.6402 83.8624C63.5648 83.0195 65.423 82.1101 65.7769 81.8218C66.4406 81.2451 69.6704 75.1012 69.2943 75.1012C69.1616 75.1012 69.0731 75.1899 69.0731 75.2786C69.0731 75.8331 67.3476 77.3857 65.9318 78.0733C64.6045 78.7609 64.1399 78.8718 62.9011 78.8718C59.3616 78.8718 56.6849 76.0771 56.6849 72.3951C56.6849 71.8185 56.6185 71.3305 56.5522 71.3305C56.4637 71.3305 55.5346 72.1733 54.4727 73.1936C49.0086 78.4725 44.6507 80.0252 41.3988 77.8737C39.5184 76.6316 39.0317 73.3932 40.1599 69.556C40.4697 68.5135 40.6909 67.6485 40.6687 67.6042C40.6245 67.582 39.4078 68.8906 37.9256 70.5098C30.3158 78.8939 26.7984 80.9124 23.6129 78.6944C20.914 76.809 20.9583 73.1936 23.7899 68.4026C24.9844 66.3621 26.4666 64.3437 29.9397 59.9741C32.9261 56.2257 33.258 55.6933 32.9925 54.9836C32.7492 54.3182 32.3731 54.3403 30.9573 55.0501C27.5727 56.7802 23.3917 60.6617 20.2504 65.0534C19.6088 65.9628 17.8833 69.6892 15.8481 74.6132C14.3217 78.3617 13.3263 79.0049 10.8929 77.9624C9.14525 77.2083 8.30463 77.6519 6.91095 80.1139C6.18094 81.356 5.71638 81.6887 5.20758 81.2673C4.74302 80.8902 4.96424 80.2692 6.84459 76.7647C7.7737 75.0568 9.65405 71.5744 11.0256 69.0015C12.3971 66.4508 14.2775 62.9019 15.2287 61.1719C17.0427 57.8226 27.2851 42.2299 30.2273 38.3262C33.0146 34.5999 35.1826 32.0935 37.5275 29.7646C39.8281 27.5243 43.6109 24.53 45.4692 23.5319C47.3495 22.4894 50.0262 22.5781 50.8226 23.7093C51.3093 24.4191 51.2429 26.9033 50.6899 28.5668C49.2077 33.0029 44.8719 39.413 40.0272 44.3148C36.5099 47.8859 31.9749 51.3016 27.5505 53.7193C26.5551 54.2738 25.5153 54.9836 25.2499 55.3163C24.7411 55.9595 24.0996 57.379 24.2544 57.5121C24.2987 57.5565 24.9181 57.0907 25.626 56.4475C28.7672 53.6749 32.3731 51.8118 34.6516 51.8118C35.9126 51.8118 37.439 52.6325 37.992 53.5862C38.6557 54.7396 38.5672 56.8245 37.7929 58.732C37.085 60.4843 34.5189 64.4545 31.7316 68.1587C28.9885 71.8184 27.7939 73.6151 27.3736 74.7463C26.8648 76.0549 26.9975 76.5207 27.816 76.6094C29.0991 76.7425 31.6431 74.5909 37.3947 68.5579C41.4873 64.2327 43.3455 61.8373 46.3762 56.8245C48.6768 53.0539 49.9378 51.5234 50.9775 51.2573C51.2651 51.1685 52.1278 51.3682 53.0348 51.7009L54.5612 52.2776L55.977 50.8358C56.7734 50.0374 57.4592 49.3719 57.5476 49.3719C57.8352 49.3719 58.2334 49.9043 58.2334 50.2592C58.2334 50.6362 57.0167 52.7655 52.1499 60.9057C47.261 69.0902 45.624 72.4617 45.624 74.3914C45.624 76.8312 48.0795 76.0327 52.3933 72.2177C55.6894 69.3121 57.5698 67.094 58.7865 64.6985C61.4189 59.5971 65.0469 56.0482 70.7543 52.9873C73.2762 51.6343 74.8469 51.1464 76.5723 51.1464C78.1872 51.1464 79.1606 51.59 79.8242 52.5881C80.2888 53.2979 80.6649 53.2979 81.5055 52.5881C82.3019 51.9227 82.9655 51.9005 84.6247 52.4772C85.8192 52.8986 85.952 52.8986 86.6156 52.5881C87.0138 52.3885 87.6111 51.8561 87.965 51.3682C88.6066 50.5253 89.2481 50.237 89.5357 50.7028C89.7569 51.0577 89.049 52.1888 86.5493 55.5824C83.7177 59.464 80.8418 63.8336 74.9796 73.2158C73.8956 74.9459 72.1038 78.6722 72.2807 78.8274C72.4135 78.9605 77.3909 75.6557 79.3597 74.103C82.2134 71.885 86.5935 67.1606 89.3587 63.3455C91.5488 60.329 95.0219 55.1832 101.636 45.0468C107.742 35.7532 113.693 29.1657 119.688 25.1289C122.563 23.1992 125.041 22.8887 126.258 24.3304C126.722 24.9071 126.811 25.2176 126.811 26.5041C126.811 28.2341 126.391 29.5871 125.063 32.2931C120.794 40.8325 111.945 49.8156 103.118 54.5178C101.282 55.4937 100.663 56.1148 99.9772 57.6674L99.579 58.5102L100.11 58.111C100.397 57.867 101.57 56.9576 102.72 56.0482C103.871 55.1388 105.618 54.0076 106.636 53.5197C108.206 52.7655 108.693 52.6325 109.954 52.6103C112.719 52.5881 114.069 53.808 114.047 56.3366C114.047 58.7986 112.587 61.7264 108.892 66.7835C103.517 74.103 102.698 75.4339 102.698 76.7203C102.698 77.2526 102.787 77.3192 103.45 77.3192C104.623 77.3192 106.658 75.8109 110.02 72.4395C115.175 67.2937 116.414 65.7632 118.051 62.547C121.258 56.2035 123.603 52.5659 128.846 45.7787C133.403 39.8788 137.12 35.4871 140.637 31.8717C147.03 25.2841 150.592 22.7556 153.445 22.7556C154.618 22.7556 154.795 22.8221 155.481 23.5097C156.166 24.1973 156.233 24.3747 156.233 25.5725C156.233 29.4097 153.091 35.4427 147.738 41.875C143.092 47.4423 136.987 52.455 131.456 55.2497C130.417 55.7821 129.355 56.4475 129.112 56.7136C128.492 57.4012 124.599 64.7651 123.448 67.3824C121.944 70.8647 120.617 74.6354 120.617 75.4339C120.617 76.7647 121.856 77.0308 123.802 76.0993C127.054 74.5466 134.819 66.606 137.319 62.2365C139.265 58.8651 141.301 55.7599 142.075 54.9392C143.159 53.808 143.955 53.6527 145.305 54.2294C146.942 54.9614 147.318 54.8727 148.711 53.3644C149.618 52.3885 150.061 52.0558 150.326 52.1667C150.946 52.4106 150.769 53.4975 149.84 54.9836C149.375 55.7377 148.158 57.8005 147.163 59.5749C146.145 61.3493 144.597 63.9444 143.734 65.3418C141.389 69.0902 139.995 71.641 139.133 73.7703C137.783 77.0752 137.827 78.4282 139.288 78.4282C140.902 78.4282 143.623 76.432 147.517 72.373C149.795 70.0219 150.061 69.6447 152.184 65.7854C154.706 61.1719 155.414 59.7745 155.304 59.6858C155.259 59.6414 154.706 59.708 154.065 59.8189C153.423 59.952 152.472 60.0185 151.963 59.9741C151.145 59.9076 151.034 59.841 150.968 59.3309C150.857 58.3993 151.477 58.0888 154.463 57.5787C155.967 57.3125 157.228 57.0907 157.25 57.0685C162.228 49.5494 165.723 44.4923 167.36 42.4517C178.155 28.9217 185.588 22.689 189.946 23.5097C191.03 23.7093 191.451 24.4635 191.451 26.2601C191.428 29.9864 188.398 35.9972 183.708 41.6088C179.859 46.2223 173.532 51.834 169.086 54.5843C168.333 55.0501 167.78 55.4715 167.825 55.5381C167.891 55.5824 168.886 55.4715 170.059 55.2719C172.404 54.8727 173.045 54.9392 173.045 55.6046C173.045 56.5584 172.382 56.8245 168.267 57.4678C166.099 57.8005 164.197 58.1775 164.042 58.3328C163.776 58.5768 162.891 60.1516 158.954 67.2271C156.941 70.8425 151.366 81.7331 151.366 82.0436C151.366 82.1323 152.184 82.1989 153.202 82.2432L155.016 82.3098V84.306H139.973V82.3098L143.645 82.0879L144.729 79.7147C145.769 77.3857 145.88 76.8534 145.083 77.7406C144.398 78.4947 141.677 80.2248 140.239 80.8015C138.314 81.6 136.19 81.6222 134.664 80.868C132.739 79.9143 131.987 78.1842 132.209 75.212C132.275 74.2361 132.54 72.7944 132.784 71.9959C133.027 71.1974 133.226 70.5098 133.226 70.4654C133.226 70.4211 131.965 71.6188 130.417 73.1271C126.169 77.2748 123.161 79.2045 120.573 79.4707C118.825 79.6259 117.276 78.7609 116.038 76.9199C114.931 75.2786 114.533 73.6372 114.71 71.4636L114.843 69.9553L111.149 73.726C109.113 75.7887 106.813 77.9624 106.061 78.5169C103.03 80.7128 100.132 80.7128 98.318 78.5169C96.8359 76.6981 96.8801 74.3248 98.4729 70.9534C99.6896 68.4249 101.282 66.0959 104.888 61.5711C106.614 59.4418 108.229 57.2681 108.494 56.7358C108.981 55.8264 108.981 55.7599 108.605 55.4715C107.299 54.5178 102.344 58.0001 98.3844 62.6801C95.3979 66.229 94.6016 67.6708 91.7036 74.7684C90.4869 77.7628 90.0002 78.5613 89.1596 79.0049C88.4296 79.382 87.7217 79.2932 86.1953 78.6056C85.6423 78.3838 85.0229 78.2286 84.8016 78.3173C84.1601 78.5169 83.3195 79.4485 82.5895 80.7571C82.2134 81.4004 81.8152 81.9992 81.6825 82.0879C81.3064 82.3319 80.5764 81.977 80.5764 81.5334C80.5764 81.0677 82.6558 76.9865 85.3326 72.1733L87.1687 68.9128L84.0274 72.0403C80.0897 75.9883 78.5633 77.1861 74.4044 79.5372C72.0153 80.8902 71.0198 81.5778 70.8649 81.9771C70.7543 82.2876 69.8916 84.5278 68.9625 86.9676C68.0334 89.4074 66.5291 92.9563 65.6 94.8416C64.0293 98.0799 63.8302 98.3905 62.0162 100.187C60.5341 101.673 59.7377 102.272 58.4546 102.893C55.7558 104.157 53.3666 104.468 50.9996 103.825ZM52.9242 99.6104C55.3355 98.3905 58.0122 95.5514 60.7774 91.2928C62.2153 89.1191 64.7593 84.4612 64.6266 84.306C64.4718 84.1729 59.8041 86.1469 56.7955 87.633C51.8181 90.0729 48.522 92.6236 47.438 94.8638C46.8186 96.1503 46.7965 98.0134 47.3716 98.9672C48.2565 100.409 50.7784 100.697 52.9242 99.6104ZM65.5557 76.432C67.6573 75.3451 69.8252 72.5282 74.3823 64.9425C78.5412 58.0001 79.6915 55.2719 79.0057 54.0742C78.7403 53.5862 78.4969 53.4531 77.6342 53.4088C75.599 53.2757 73.8956 54.6509 70.2455 59.3974C68.144 62.1034 65.6663 65.7854 64.5824 67.7816C62.3038 71.9515 61.4853 75.8996 62.7241 76.6981C63.2329 77.0087 64.6708 76.8756 65.5557 76.432ZM168.687 52.9652C173.466 50.1261 180.213 43.8491 183.686 39.0359C187.159 34.245 189.592 29.5206 189.814 27.1473C190.212 22.6669 185.876 24.6409 180.478 31.4059C179.66 32.4484 177.824 35.0435 176.408 37.2171C173.598 41.4536 166.342 53.2313 166.099 53.8745C165.9 54.4512 166.586 54.2072 168.687 52.9652ZM133.558 52.3441C137.363 50.1261 138.336 49.3719 141.721 46.0671C148.557 39.3686 154.153 30.8292 154.795 26.1492C155.149 23.3988 153.268 23.2214 150.26 25.6834C148.888 26.8146 145.659 30.4078 143.889 32.8033C139.863 38.2374 129.908 54.0298 130.505 54.0298C130.616 54.0298 131.987 53.2757 133.558 52.3441ZM104.49 51.6565C109.224 48.9949 115.861 42.9618 119.688 37.8604C123.869 32.3153 126.125 26.9033 124.953 25.3063C124.51 24.6853 123.227 24.7962 122.121 25.5281C119.533 27.236 114.998 32.6036 111.171 38.4592C108.029 43.228 102.477 52.2997 102.477 52.6103C102.477 52.7877 102.654 52.699 104.49 51.6565ZM30.2494 50.0817C33.8552 47.7528 37.0629 44.9802 40.8015 40.9656C43.7437 37.816 46.0886 34.5777 47.7256 31.3615C49.9599 27.0364 50.2475 24.774 48.6989 24.2195C46.6637 23.5097 40.9121 29.4762 35.1826 38.2818C32.5058 42.3852 26.8205 51.6343 26.8205 51.9005C26.8205 52.1001 28.4575 51.2573 30.2494 50.0817Z"/>
<path d="M114.202 98.3247C113.051 97.9477 111.68 96.4616 111.348 95.2195C110.861 93.5338 111.127 91.0718 111.901 89.8075C112.874 88.2549 114.202 87.6338 116.635 87.6338C118.781 87.6338 119.843 88.0553 121.015 89.3861C122.276 90.8278 122.497 94.0218 121.48 96.1289C121.192 96.7056 120.617 97.3488 119.997 97.7924C119.024 98.4578 118.825 98.5022 116.967 98.5465C115.883 98.5687 114.622 98.48 114.202 98.3247ZM117.719 95.3304C118.449 94.5984 118.736 93.2011 118.405 91.959C117.896 90.0293 115.706 89.8297 114.954 91.6263C113.825 94.3766 115.905 97.1714 117.719 95.3304Z"/>
<path d="M100.154 97.681C100.088 97.2817 100.044 94.9085 100.088 92.4021L100.154 87.8551L103.251 87.7886C107.432 87.6999 108.14 87.8108 109.047 88.7867C109.689 89.4521 109.777 89.6961 109.777 90.6942C109.777 91.9585 109.246 93.0897 108.45 93.5111L107.963 93.7773L108.406 94.243C109.003 94.9084 110.441 97.5701 110.441 98.0359C110.441 98.3686 110.198 98.3907 108.538 98.3464L106.614 98.2798L105.574 96.3945C104.158 93.8216 103.849 93.7994 103.76 96.328L103.694 98.2798L100.287 98.4129L100.154 97.681ZM105.663 91.7367C106.924 91.2709 106.083 90.1841 104.446 90.1841C103.849 90.1841 103.804 90.2284 103.804 91.0713C103.804 91.9141 103.849 91.9585 104.446 91.9585C104.8 91.9585 105.353 91.8698 105.663 91.7367Z"/>
<path d="M123.869 96.5716C123.67 94.1983 123.67 90.8491 123.847 89.0969L124.002 87.7439H127.475V95.507H132.341V98.3904H124.002L123.869 96.5716Z"/>
<path d="M133.669 87.7439H142.739V88.9416C142.739 90.3833 142.694 90.4055 139.597 90.4055C137.429 90.4055 137.429 90.4055 137.429 90.96V91.5145H142.296V93.9543H140.04C138.779 93.9543 137.628 94.0431 137.474 94.154C137.297 94.2649 137.208 94.6198 137.252 94.9746L137.319 95.6179L142.739 95.7509V98.3904H133.669V87.7439Z"/>
<path d="M144.508 87.7439H147.827C151.609 87.7439 152.428 87.9435 153.136 89.1191C153.689 90.0284 153.733 91.9138 153.224 92.9784C152.715 94.0209 151.41 94.6198 149.53 94.6198H148.048V98.3904H144.508V87.7439ZM149.972 91.6032C150.348 91.0709 149.972 90.4721 149.154 90.2946C148.247 90.095 148.048 90.2946 148.048 91.3371V92.2465L148.866 92.1134C149.331 92.0247 149.818 91.8029 149.972 91.6032Z"/>
<path d="M155.348 87.7439H158.888V95.4848L163.865 95.6179L163.998 98.3904H155.348V87.7439Z"/>
<path d="M164.418 98.0134C164.44 97.7916 165.258 95.4183 166.254 92.7345L168.09 87.8549H172.006L173.952 93.0672C175.036 95.9285 175.921 98.3018 175.921 98.3461C175.921 98.3683 175.08 98.3905 174.063 98.3905H172.205L171.939 97.6142L171.674 96.8157L168.311 96.9488L168.134 97.6807L167.935 98.3905H166.188C164.639 98.3905 164.418 98.3461 164.418 98.0134ZM170.7 93.5774C170.612 93.2225 170.413 92.6014 170.28 92.18L170.015 91.4037L169.639 92.668C169.439 93.3556 169.285 93.9766 169.285 94.0431C169.285 94.1097 169.639 94.1762 170.059 94.1762C170.811 94.1762 170.833 94.154 170.7 93.5774Z"/>
<path d="M178.576 94.0653L176.585 91.0709C175.501 89.4296 174.594 88.01 174.594 87.9213C174.594 87.8104 175.479 87.7439 176.563 87.7439H178.531L179.438 89.2965C179.947 90.1615 180.39 90.8491 180.434 90.8491C180.478 90.8491 180.921 90.1615 181.429 89.2965L182.358 87.7439H184.217C185.411 87.7439 186.097 87.8326 186.097 87.9879C186.097 88.1209 185.234 89.5405 184.172 91.1375L182.226 94.0653L182.159 96.2389L182.071 98.3904H178.576V94.0653Z"/>
<path d="M172.581 79.9143C169.174 78.9383 167.404 76.4098 167.449 72.5504C167.493 67.8925 171.121 62.0591 176.695 57.6896C182.005 53.5197 186.23 51.9449 190.19 52.699C193.132 53.2535 194.415 55.0058 194.238 58.2441C194.127 60.1738 193.619 61.4602 192.402 62.9019C189.482 66.4286 184.925 68.4248 178.62 68.935L175.434 69.2011L174.704 70.6651C172.315 75.4117 173.067 77.9846 176.85 77.9846C179.571 77.9846 182.58 76.7869 186.385 74.2139C190.19 71.641 193.375 68.5579 196.826 64.1219C199.614 60.5287 202.047 57.5787 202.246 57.5787C202.357 57.5787 202.578 57.7339 202.777 57.9114C203.02 58.1775 203.065 58.3993 202.91 58.7986C202.622 59.5305 197.733 65.7854 195.388 68.4248C190.698 73.6594 184.858 77.8072 179.682 79.5372C177.89 80.1583 174.107 80.3357 172.581 79.9143ZM179.726 66.1403C182.182 64.8538 187.778 59.9741 189.017 58.0445C189.725 56.8911 189.902 54.9614 189.305 54.4734C188.553 53.8524 186.429 54.8283 184.593 56.6471C182.403 58.8208 176.806 66.1181 176.806 66.8057C176.806 67.1162 178.664 66.6948 179.726 66.1403Z"/>
<path d="M149.397 49.0174C147.185 47.1543 148.468 42.1859 151.477 41.0325C154.175 40.0122 156.454 41.5648 156.454 44.4483C156.454 47.3539 154.264 49.5941 151.388 49.5941C150.304 49.5941 149.95 49.5054 149.397 49.0174Z"/>
<path d="M56.9946 46.5106C56.1318 45.9783 55.8 45.0689 55.8 43.2723C55.8 40.3667 57.8131 38.1708 60.4235 38.1708C62.7241 38.193 63.8302 39.3464 63.8302 41.7197C63.8302 44.0042 62.6799 45.823 60.7332 46.6437C59.6713 47.0651 57.8131 47.0208 56.9946 46.5106Z"/>
<path d="M82.2486 44.6159C77.9177 41.4084 75.2126 39.4079 62.0883 29.7166C57.8464 26.5841 54.3841 23.9724 54.3843 23.9111C54.393 23.8486 54.69 23.4745 55.0446 23.0748C55.3979 22.6665 58.0761 19.5875 61.0045 16.2371L66.3155 10.1292L95.7645 6L102.228 10.2296C105.78 12.5488 108.968 14.6303 109.305 14.8544C110.63 15.7185 110.997 15.9733 111.036 16.0641C111.051 16.1143 110.683 16.6647 110.201 17.2748C109.719 17.8935 106.82 21.6422 103.751 25.6073C100.682 29.581 96.7925 34.6148 95.0975 36.7948C93.4037 38.9834 90.8152 42.3298 89.3521 44.2323C87.8805 46.136 86.6238 47.7034 86.5627 47.7032C86.4942 47.7128 84.5549 46.3223 82.2486 44.6159ZM87.4711 41.3813C88.0705 38.9175 88.5488 36.8381 88.5381 36.7608C88.5189 36.6235 88.0704 35.409 84.9715 27.1992C84.3229 25.4878 83.627 23.6255 83.4185 23.0686C83.2088 22.503 83.0231 22.0479 82.9975 22.0515C82.9718 22.0551 82.928 22.3674 82.9012 22.7386C82.867 23.1197 82.6943 25.2 82.5163 27.3685C81.9466 34.0541 81.6691 37.5752 81.6918 37.7383C81.7026 37.8155 82.523 39.3191 83.5175 41.0695C84.5035 42.8211 85.5344 44.6451 85.8018 45.1238C86.0681 45.594 86.3102 45.9537 86.3409 45.9232C86.3703 45.8841 86.8803 43.844 87.4711 41.3813ZM83.0052 41.9025C81.8916 39.9238 80.9031 38.2163 80.8093 38.107C80.7155 37.9976 78.0952 35.4778 74.9921 32.5006C71.8817 29.5333 68.9689 26.7307 68.5045 26.2796C67.4052 25.2176 67.3955 25.2102 67.876 25.9653C68.0998 26.3189 68.6801 27.2262 69.1594 27.9727C70.0085 29.306 72.0948 32.5657 74.9268 36.9807L76.3221 39.1649L79.5993 41.5751C84.5302 45.2059 85.0071 45.559 85.0206 45.5308C85.0366 45.5199 84.1285 43.8886 83.0052 41.9025ZM91.4775 40.0671L94.0587 36.7305L94.3218 35.8624C94.6231 34.8927 97.0774 26.7617 97.831 24.215C98.1065 23.3102 98.4412 22.2046 98.5783 21.7479C98.7081 21.301 98.7787 20.9936 98.7198 21.0719C98.6609 21.1501 96.6871 24.5241 94.3336 28.5551C91.9727 32.5958 89.9141 36.1129 89.7507 36.3808C89.5958 36.6475 89.3715 37.2302 89.2589 37.6747C88.8802 39.1539 87.4374 45.1482 87.4445 45.1997C87.4529 45.2598 87.5646 45.1216 91.4775 40.0671ZM81.1524 33.553C81.2718 32.0926 81.4585 29.8616 81.5615 28.596C81.673 27.3292 81.8636 25.0015 82.0006 23.4161L82.2369 20.5395L77.4821 21.1799C74.8699 21.5374 72.7126 21.8399 72.6978 21.8595C72.6831 21.879 74.509 25.149 76.7557 29.1211C79.0023 33.0933 80.865 36.3143 80.8859 36.2764C80.9154 36.2373 81.0329 35.0134 81.1524 33.553ZM90.2772 29.8238C91.7732 23.647 92.8804 19.0646 92.8768 19.0389C92.8744 19.0217 90.7147 19.307 88.0694 19.6779C83.5408 20.3129 83.2766 20.3587 83.3397 20.4986C83.4405 20.7207 84.1425 22.5646 85.1305 25.2083C87.0363 30.3044 88.8198 35.024 88.8879 35.1369C88.9243 35.2105 89.117 34.5886 89.3386 33.6738C89.5491 32.8044 89.9714 31.074 90.2772 29.8238ZM73.4122 36.1956C73.3332 36.0667 72.6677 35.0489 71.9524 33.9243C71.2371 32.7997 69.7432 30.4718 68.6386 28.7456C67.5353 27.028 66.2507 25.012 65.7811 24.2729L64.9211 22.9236L60.2383 23.5802L60.5406 23.8703C71.8018 34.7853 73.4959 36.4201 73.5301 36.4153C73.5558 36.4117 73.4986 36.3148 73.4122 36.1956ZM96.6815 32.1893C97.0183 31.5996 97.575 30.6466 97.9045 30.0667C98.5177 29.0183 100.69 25.2491 103.556 20.2626C104.408 18.7957 105.146 17.5198 105.204 17.4329C105.303 17.2702 105.191 17.2773 102.965 17.5893L100.62 17.9182L99.803 20.64C99.3558 22.1288 98.4838 25.0159 97.8772 27.052C96.1466 32.798 96.0022 33.2645 96.0364 33.2597C96.0535 33.2573 96.335 32.7716 96.6815 32.1893ZM78.7417 34.3547C78.3976 33.7643 77.2049 31.6567 76.0902 29.6694C74.9668 27.6833 73.5323 25.1547 72.8964 24.0365L71.75 22.0099L68.9128 22.3814L66.0682 22.7628L66.8117 23.4635C67.2151 23.8531 68.0414 24.6472 68.6557 25.2348C71.1554 27.6403 74.0159 30.3802 77.1068 33.3328C77.9429 34.1342 78.7692 34.9283 78.9606 35.1115C79.1422 35.2872 79.3018 35.4311 79.319 35.4287C79.3361 35.4263 79.076 34.9378 78.7417 34.3547ZM94.3967 26.7526C96.6162 22.9504 98.6674 19.4431 98.9489 18.9574L99.4724 18.0791L96.6326 18.4948L93.7854 18.9202L92.3848 24.7162C90.1742 33.8454 90.1543 33.9532 90.2551 33.7991C90.314 33.7208 92.1771 30.5548 94.3967 26.7526ZM103.355 24.7091C104.923 22.6868 106.994 19.9171 107.909 18.7127C107.909 18.7127 109.182 16.8908 109.416 16.6962C109.65 16.5016 109.416 16.6962 107.948 16.8908C106.479 17.0854 106.356 17.1226 106.356 17.1226L105.113 19.2831C104.432 20.4722 102.885 23.1563 101.676 25.2507C100.467 27.3452 99.2584 29.4482 98.9917 29.9143C98.7176 30.3902 98.387 30.9615 98.2457 31.2C98.1129 31.4374 98.5693 30.8922 99.2567 29.9996C99.944 29.107 101.786 26.7314 103.355 24.7091ZM67.5349 31.8489C65.7189 30.0912 63.1036 27.5444 61.7105 26.1911L59.1865 23.7364L57.6028 23.9585L56.0178 24.172L56.8448 24.7822C58.312 25.8539 66.0652 31.5738 68.4409 33.3405C69.7154 34.2817 70.7741 35.0519 70.7912 35.0495C70.8169 35.0459 69.3508 33.6066 67.5349 31.8489ZM59.9202 20.5451C60.4388 19.2562 60.944 17.9955 61.0475 17.736L61.236 17.2721L61.0188 17.53C60.8985 17.6694 59.7699 18.965 58.505 20.411C57.2402 21.857 56.1557 23.094 56.0956 23.1637C56.0072 23.2811 56.2236 23.2682 57.4906 23.0906L58.9887 22.8805L59.9202 20.5451ZM63.5913 19.3304C63.0557 17.8044 62.605 16.5114 62.571 16.455C62.5467 16.4059 62.0308 17.5894 61.4209 19.101C60.8197 20.6114 60.2431 22.0484 60.1384 22.2993L59.9647 22.7437L64.5447 22.1015L63.5913 19.3304ZM72.4764 18.0146C73.474 14.4625 73.4343 14.6168 73.3253 14.7108C73.2787 14.7524 72.3516 15.6785 71.2737 16.7746C70.1969 17.8792 68.6984 19.4018 67.9417 20.1728C67.1851 20.9438 66.513 21.633 66.4541 21.7113C66.3572 21.8299 66.7106 21.7978 68.9853 21.4614L71.6185 21.0659L72.4764 18.0146ZM81.4602 19.5372C80.1667 18.3974 74.5796 13.8788 74.5354 13.9374C74.4839 14.0059 72.7237 20.2285 72.5997 20.7796L72.549 20.9792L81.6491 19.7032L81.4602 19.5372ZM92.6491 17.9684C92.5907 17.8628 92.0921 17.0403 91.529 16.1306C90.9658 15.2209 90.1534 13.8999 89.7228 13.1904C89.2837 12.482 88.898 11.9061 88.8552 11.9121C88.7879 11.9303 84.0518 18.7189 83.8084 19.1642L83.6695 19.4199L92.7524 18.1464L92.6491 17.9684ZM98.8541 17.2121C98.6297 17.0423 90.2439 12.2949 90.2218 12.3242C90.2059 12.3352 90.3226 12.5463 90.4698 12.7882C90.6924 13.1332 92.3076 15.7677 93.4727 17.6779L93.6856 18.0155L96.3137 17.647C97.9574 17.4166 98.9114 17.2478 98.8541 17.2121ZM105.081 16.0503C104.933 15.8611 103.985 14.6378 102.974 13.3273C101.962 12.0167 101.125 10.9616 101.118 10.9714C101.103 10.991 101.015 12.3595 100.913 14.0099L100.74 17.0265L105.345 16.3807L105.081 16.0503ZM109.087 15.7336C108.614 15.4062 102.837 11.6578 102.803 11.6626C102.786 11.665 103.567 12.7016 104.545 13.9556L106.313 16.245L107.768 16.041C109.001 15.8681 109.204 15.8222 109.087 15.7336ZM85.4096 15.3088C86.9139 13.138 88.137 11.3304 88.1311 11.2875C88.1263 11.2531 86.556 10.6946 84.6424 10.053L81.156 8.897L78.0884 10.9982L75.0221 13.108L77.9094 15.4767C79.4958 16.7767 81.1918 18.175 81.6758 18.5796C82.1599 18.9842 82.588 19.3003 82.621 19.287C82.6529 19.265 83.9139 17.4783 85.4096 15.3088ZM67.6623 19.2321C68.9082 17.9637 70.7723 16.0575 71.8048 15.0115C72.8362 13.957 73.6836 13.0857 73.6995 13.0747C73.7376 13.0344 71.3095 10.3913 71.2325 10.4021C71.164 10.4118 63.1812 15.197 63.1211 15.2667C63.061 15.3363 65.2554 21.5644 65.3239 21.5548C65.3667 21.5488 66.4163 20.5004 67.6623 19.2321ZM100.112 13.3961C100.207 11.5717 100.277 10.0744 100.258 10.0596C100.238 10.0448 99.448 9.82317 98.4965 9.57162C97.5536 9.31886 95.5138 8.77368 93.981 8.35866C92.4481 7.94364 91.1534 7.60897 91.1191 7.61377C91.0763 7.61977 90.6804 8.34898 90.2461 9.24105L89.4502 10.8575L89.676 10.9746C89.7906 11.046 92.1116 12.3567 94.8242 13.91C97.5357 15.4546 99.7969 16.7124 99.8397 16.7064C99.8923 16.7078 100.007 15.2131 100.112 13.3961ZM76.8899 10.7901L79.3168 9.10238L75.7898 9.59692C73.8453 9.86081 72.2553 10.1012 72.2589 10.127C72.2697 10.2042 74.37 12.4995 74.4202 12.4837C74.4459 12.4801 75.5533 11.7211 76.8899 10.7901ZM89.3566 9.1208C89.7306 8.35967 90.0504 7.71112 90.053 7.66701C90.0642 7.6217 88.527 7.80224 86.5335 8.0905L82.9979 8.58623L85.7931 9.5417C87.3329 10.0695 88.6054 10.4948 88.6311 10.4912C88.658 10.4962 88.9814 9.87335 89.3566 9.1208ZM67.8872 11.3874L69.2969 10.5423L66.8499 10.8329L65.8341 11.999C65.2771 12.6371 64.828 13.1725 64.8304 13.1896C64.834 13.2154 65.5125 12.8228 67.8872 11.3874ZM97.9011 8.4302C97.7938 8.34901 97.1985 7.96002 96.5836 7.55627L95.4686 6.82018L93.0188 7.21617L95.5129 7.89013C96.8821 8.2581 98.0242 8.56169 98.051 8.56667C98.0682 8.56427 98.0072 8.50282 97.9011 8.4302Z"/>
</mask>
<path d="M115.573 120.66C113.427 120.083 111.879 118.974 111.038 117.377C110.64 116.623 110.551 116.113 110.551 114.25C110.551 112.231 110.618 111.899 111.237 110.59C113.162 106.487 116.878 103.936 120.816 103.936C123.537 103.958 125.019 104.912 125.373 106.886C125.992 110.124 121.922 113.54 118.36 112.786C116.303 112.342 115.175 110.479 116.657 109.947C117.055 109.814 117.63 109.703 117.962 109.703C119.046 109.703 119.931 108.217 119.245 107.529C118.449 106.731 116.568 107.551 114.821 109.459C112.343 112.143 111.635 115.115 113.007 117.044C115.175 120.128 120.617 120.394 124.842 117.643C127.806 115.736 130.417 112.963 133.005 109.037C134.244 107.13 135.438 105.023 135.438 104.712C135.438 104.646 134.664 104.601 133.713 104.601C131.633 104.601 131.169 104.357 131.279 103.271L131.346 102.494L138.933 102.428C146.035 102.383 146.499 102.405 146.521 102.76C146.565 103.603 146.433 104.269 146.189 104.424C146.057 104.513 144.862 104.601 143.513 104.601L141.079 104.624L138.867 107.773C135.261 112.897 131.036 116.8 126.678 119.019C123.205 120.771 118.559 121.481 115.573 120.66Z" fill="url(#paint0_linear)"/>
<path d="M50.9996 103.825C47.5707 102.893 45.5577 100.498 45.5355 97.2814C45.5134 95.2409 46.3098 93.6661 48.4777 91.4924C51.1987 88.7864 54.2073 87.0342 61.6402 83.8624C63.5648 83.0195 65.423 82.1101 65.7769 81.8218C66.4406 81.2451 69.6704 75.1012 69.2943 75.1012C69.1616 75.1012 69.0731 75.1899 69.0731 75.2786C69.0731 75.8331 67.3476 77.3857 65.9318 78.0733C64.6045 78.7609 64.1399 78.8718 62.9011 78.8718C59.3616 78.8718 56.6849 76.0771 56.6849 72.3951C56.6849 71.8185 56.6185 71.3305 56.5522 71.3305C56.4637 71.3305 55.5346 72.1733 54.4727 73.1936C49.0086 78.4725 44.6507 80.0252 41.3988 77.8737C39.5184 76.6316 39.0317 73.3932 40.1599 69.556C40.4697 68.5135 40.6909 67.6485 40.6687 67.6042C40.6245 67.582 39.4078 68.8906 37.9256 70.5098C30.3158 78.8939 26.7984 80.9124 23.6129 78.6944C20.914 76.809 20.9583 73.1936 23.7899 68.4026C24.9844 66.3621 26.4666 64.3437 29.9397 59.9741C32.9261 56.2257 33.258 55.6933 32.9925 54.9836C32.7492 54.3182 32.3731 54.3403 30.9573 55.0501C27.5727 56.7802 23.3917 60.6617 20.2504 65.0534C19.6088 65.9628 17.8833 69.6892 15.8481 74.6132C14.3217 78.3617 13.3263 79.0049 10.8929 77.9624C9.14525 77.2083 8.30463 77.6519 6.91095 80.1139C6.18094 81.356 5.71638 81.6887 5.20758 81.2673C4.74302 80.8902 4.96424 80.2692 6.84459 76.7647C7.7737 75.0568 9.65405 71.5744 11.0256 69.0015C12.3971 66.4508 14.2775 62.9019 15.2287 61.1719C17.0427 57.8226 27.2851 42.2299 30.2273 38.3262C33.0146 34.5999 35.1826 32.0935 37.5275 29.7646C39.8281 27.5243 43.6109 24.53 45.4692 23.5319C47.3495 22.4894 50.0262 22.5781 50.8226 23.7093C51.3093 24.4191 51.2429 26.9033 50.6899 28.5668C49.2077 33.0029 44.8719 39.413 40.0272 44.3148C36.5099 47.8859 31.9749 51.3016 27.5505 53.7193C26.5551 54.2738 25.5153 54.9836 25.2499 55.3163C24.7411 55.9595 24.0996 57.379 24.2544 57.5121C24.2987 57.5565 24.9181 57.0907 25.626 56.4475C28.7672 53.6749 32.3731 51.8118 34.6516 51.8118C35.9126 51.8118 37.439 52.6325 37.992 53.5862C38.6557 54.7396 38.5672 56.8245 37.7929 58.732C37.085 60.4843 34.5189 64.4545 31.7316 68.1587C28.9885 71.8184 27.7939 73.6151 27.3736 74.7463C26.8648 76.0549 26.9975 76.5207 27.816 76.6094C29.0991 76.7425 31.6431 74.5909 37.3947 68.5579C41.4873 64.2327 43.3455 61.8373 46.3762 56.8245C48.6768 53.0539 49.9378 51.5234 50.9775 51.2573C51.2651 51.1685 52.1278 51.3682 53.0348 51.7009L54.5612 52.2776L55.977 50.8358C56.7734 50.0374 57.4592 49.3719 57.5476 49.3719C57.8352 49.3719 58.2334 49.9043 58.2334 50.2592C58.2334 50.6362 57.0167 52.7655 52.1499 60.9057C47.261 69.0902 45.624 72.4617 45.624 74.3914C45.624 76.8312 48.0795 76.0327 52.3933 72.2177C55.6894 69.3121 57.5698 67.094 58.7865 64.6985C61.4189 59.5971 65.0469 56.0482 70.7543 52.9873C73.2762 51.6343 74.8469 51.1464 76.5723 51.1464C78.1872 51.1464 79.1606 51.59 79.8242 52.5881C80.2888 53.2979 80.6649 53.2979 81.5055 52.5881C82.3019 51.9227 82.9655 51.9005 84.6247 52.4772C85.8192 52.8986 85.952 52.8986 86.6156 52.5881C87.0138 52.3885 87.6111 51.8561 87.965 51.3682C88.6066 50.5253 89.2481 50.237 89.5357 50.7028C89.7569 51.0577 89.049 52.1888 86.5493 55.5824C83.7177 59.464 80.8418 63.8336 74.9796 73.2158C73.8956 74.9459 72.1038 78.6722 72.2807 78.8274C72.4135 78.9605 77.3909 75.6557 79.3597 74.103C82.2134 71.885 86.5935 67.1606 89.3587 63.3455C91.5488 60.329 95.0219 55.1832 101.636 45.0468C107.742 35.7532 113.693 29.1657 119.688 25.1289C122.563 23.1992 125.041 22.8887 126.258 24.3304C126.722 24.9071 126.811 25.2176 126.811 26.5041C126.811 28.2341 126.391 29.5871 125.063 32.2931C120.794 40.8325 111.945 49.8156 103.118 54.5178C101.282 55.4937 100.663 56.1148 99.9772 57.6674L99.579 58.5102L100.11 58.111C100.397 57.867 101.57 56.9576 102.72 56.0482C103.871 55.1388 105.618 54.0076 106.636 53.5197C108.206 52.7655 108.693 52.6325 109.954 52.6103C112.719 52.5881 114.069 53.808 114.047 56.3366C114.047 58.7986 112.587 61.7264 108.892 66.7835C103.517 74.103 102.698 75.4339 102.698 76.7203C102.698 77.2526 102.787 77.3192 103.45 77.3192C104.623 77.3192 106.658 75.8109 110.02 72.4395C115.175 67.2937 116.414 65.7632 118.051 62.547C121.258 56.2035 123.603 52.5659 128.846 45.7787C133.403 39.8788 137.12 35.4871 140.637 31.8717C147.03 25.2841 150.592 22.7556 153.445 22.7556C154.618 22.7556 154.795 22.8221 155.481 23.5097C156.166 24.1973 156.233 24.3747 156.233 25.5725C156.233 29.4097 153.091 35.4427 147.738 41.875C143.092 47.4423 136.987 52.455 131.456 55.2497C130.417 55.7821 129.355 56.4475 129.112 56.7136C128.492 57.4012 124.599 64.7651 123.448 67.3824C121.944 70.8647 120.617 74.6354 120.617 75.4339C120.617 76.7647 121.856 77.0308 123.802 76.0993C127.054 74.5466 134.819 66.606 137.319 62.2365C139.265 58.8651 141.301 55.7599 142.075 54.9392C143.159 53.808 143.955 53.6527 145.305 54.2294C146.942 54.9614 147.318 54.8727 148.711 53.3644C149.618 52.3885 150.061 52.0558 150.326 52.1667C150.946 52.4106 150.769 53.4975 149.84 54.9836C149.375 55.7377 148.158 57.8005 147.163 59.5749C146.145 61.3493 144.597 63.9444 143.734 65.3418C141.389 69.0902 139.995 71.641 139.133 73.7703C137.783 77.0752 137.827 78.4282 139.288 78.4282C140.902 78.4282 143.623 76.432 147.517 72.373C149.795 70.0219 150.061 69.6447 152.184 65.7854C154.706 61.1719 155.414 59.7745 155.304 59.6858C155.259 59.6414 154.706 59.708 154.065 59.8189C153.423 59.952 152.472 60.0185 151.963 59.9741C151.145 59.9076 151.034 59.841 150.968 59.3309C150.857 58.3993 151.477 58.0888 154.463 57.5787C155.967 57.3125 157.228 57.0907 157.25 57.0685C162.228 49.5494 165.723 44.4923 167.36 42.4517C178.155 28.9217 185.588 22.689 189.946 23.5097C191.03 23.7093 191.451 24.4635 191.451 26.2601C191.428 29.9864 188.398 35.9972 183.708 41.6088C179.859 46.2223 173.532 51.834 169.086 54.5843C168.333 55.0501 167.78 55.4715 167.825 55.5381C167.891 55.5824 168.886 55.4715 170.059 55.2719C172.404 54.8727 173.045 54.9392 173.045 55.6046C173.045 56.5584 172.382 56.8245 168.267 57.4678C166.099 57.8005 164.197 58.1775 164.042 58.3328C163.776 58.5768 162.891 60.1516 158.954 67.2271C156.941 70.8425 151.366 81.7331 151.366 82.0436C151.366 82.1323 152.184 82.1989 153.202 82.2432L155.016 82.3098V84.306H139.973V82.3098L143.645 82.0879L144.729 79.7147C145.769 77.3857 145.88 76.8534 145.083 77.7406C144.398 78.4947 141.677 80.2248 140.239 80.8015C138.314 81.6 136.19 81.6222 134.664 80.868C132.739 79.9143 131.987 78.1842 132.209 75.212C132.275 74.2361 132.54 72.7944 132.784 71.9959C133.027 71.1974 133.226 70.5098 133.226 70.4654C133.226 70.4211 131.965 71.6188 130.417 73.1271C126.169 77.2748 123.161 79.2045 120.573 79.4707C118.825 79.6259 117.276 78.7609 116.038 76.9199C114.931 75.2786 114.533 73.6372 114.71 71.4636L114.843 69.9553L111.149 73.726C109.113 75.7887 106.813 77.9624 106.061 78.5169C103.03 80.7128 100.132 80.7128 98.318 78.5169C96.8359 76.6981 96.8801 74.3248 98.4729 70.9534C99.6896 68.4249 101.282 66.0959 104.888 61.5711C106.614 59.4418 108.229 57.2681 108.494 56.7358C108.981 55.8264 108.981 55.7599 108.605 55.4715C107.299 54.5178 102.344 58.0001 98.3844 62.6801C95.3979 66.229 94.6016 67.6708 91.7036 74.7684C90.4869 77.7628 90.0002 78.5613 89.1596 79.0049C88.4296 79.382 87.7217 79.2932 86.1953 78.6056C85.6423 78.3838 85.0229 78.2286 84.8016 78.3173C84.1601 78.5169 83.3195 79.4485 82.5895 80.7571C82.2134 81.4004 81.8152 81.9992 81.6825 82.0879C81.3064 82.3319 80.5764 81.977 80.5764 81.5334C80.5764 81.0677 82.6558 76.9865 85.3326 72.1733L87.1687 68.9128L84.0274 72.0403C80.0897 75.9883 78.5633 77.1861 74.4044 79.5372C72.0153 80.8902 71.0198 81.5778 70.8649 81.9771C70.7543 82.2876 69.8916 84.5278 68.9625 86.9676C68.0334 89.4074 66.5291 92.9563 65.6 94.8416C64.0293 98.0799 63.8302 98.3905 62.0162 100.187C60.5341 101.673 59.7377 102.272 58.4546 102.893C55.7558 104.157 53.3666 104.468 50.9996 103.825ZM52.9242 99.6104C55.3355 98.3905 58.0122 95.5514 60.7774 91.2928C62.2153 89.1191 64.7593 84.4612 64.6266 84.306C64.4718 84.1729 59.8041 86.1469 56.7955 87.633C51.8181 90.0729 48.522 92.6236 47.438 94.8638C46.8186 96.1503 46.7965 98.0134 47.3716 98.9672C48.2565 100.409 50.7784 100.697 52.9242 99.6104ZM65.5557 76.432C67.6573 75.3451 69.8252 72.5282 74.3823 64.9425C78.5412 58.0001 79.6915 55.2719 79.0057 54.0742C78.7403 53.5862 78.4969 53.4531 77.6342 53.4088C75.599 53.2757 73.8956 54.6509 70.2455 59.3974C68.144 62.1034 65.6663 65.7854 64.5824 67.7816C62.3038 71.9515 61.4853 75.8996 62.7241 76.6981C63.2329 77.0087 64.6708 76.8756 65.5557 76.432ZM168.687 52.9652C173.466 50.1261 180.213 43.8491 183.686 39.0359C187.159 34.245 189.592 29.5206 189.814 27.1473C190.212 22.6669 185.876 24.6409 180.478 31.4059C179.66 32.4484 177.824 35.0435 176.408 37.2171C173.598 41.4536 166.342 53.2313 166.099 53.8745C165.9 54.4512 166.586 54.2072 168.687 52.9652ZM133.558 52.3441C137.363 50.1261 138.336 49.3719 141.721 46.0671C148.557 39.3686 154.153 30.8292 154.795 26.1492C155.149 23.3988 153.268 23.2214 150.26 25.6834C148.888 26.8146 145.659 30.4078 143.889 32.8033C139.863 38.2374 129.908 54.0298 130.505 54.0298C130.616 54.0298 131.987 53.2757 133.558 52.3441ZM104.49 51.6565C109.224 48.9949 115.861 42.9618 119.688 37.8604C123.869 32.3153 126.125 26.9033 124.953 25.3063C124.51 24.6853 123.227 24.7962 122.121 25.5281C119.533 27.236 114.998 32.6036 111.171 38.4592C108.029 43.228 102.477 52.2997 102.477 52.6103C102.477 52.7877 102.654 52.699 104.49 51.6565ZM30.2494 50.0817C33.8552 47.7528 37.0629 44.9802 40.8015 40.9656C43.7437 37.816 46.0886 34.5777 47.7256 31.3615C49.9599 27.0364 50.2475 24.774 48.6989 24.2195C46.6637 23.5097 40.9121 29.4762 35.1826 38.2818C32.5058 42.3852 26.8205 51.6343 26.8205 51.9005C26.8205 52.1001 28.4575 51.2573 30.2494 50.0817Z" fill="url(#paint1_linear)"/>
<path d="M114.202 98.3247C113.051 97.9477 111.68 96.4616 111.348 95.2195C110.861 93.5338 111.127 91.0718 111.901 89.8075C112.874 88.2549 114.202 87.6338 116.635 87.6338C118.781 87.6338 119.843 88.0553 121.015 89.3861C122.276 90.8278 122.497 94.0218 121.48 96.1289C121.192 96.7056 120.617 97.3488 119.997 97.7924C119.024 98.4578 118.825 98.5022 116.967 98.5465C115.883 98.5687 114.622 98.48 114.202 98.3247ZM117.719 95.3304C118.449 94.5984 118.736 93.2011 118.405 91.959C117.896 90.0293 115.706 89.8297 114.954 91.6263C113.825 94.3766 115.905 97.1714 117.719 95.3304Z" fill="url(#paint2_linear)"/>
<path d="M100.154 97.681C100.088 97.2817 100.044 94.9085 100.088 92.4021L100.154 87.8551L103.251 87.7886C107.432 87.6999 108.14 87.8108 109.047 88.7867C109.689 89.4521 109.777 89.6961 109.777 90.6942C109.777 91.9585 109.246 93.0897 108.45 93.5111L107.963 93.7773L108.406 94.243C109.003 94.9084 110.441 97.5701 110.441 98.0359C110.441 98.3686 110.198 98.3907 108.538 98.3464L106.614 98.2798L105.574 96.3945C104.158 93.8216 103.849 93.7994 103.76 96.328L103.694 98.2798L100.287 98.4129L100.154 97.681ZM105.663 91.7367C106.924 91.2709 106.083 90.1841 104.446 90.1841C103.849 90.1841 103.804 90.2284 103.804 91.0713C103.804 91.9141 103.849 91.9585 104.446 91.9585C104.8 91.9585 105.353 91.8698 105.663 91.7367Z" fill="url(#paint3_linear)"/>
<path d="M123.869 96.5716C123.67 94.1983 123.67 90.8491 123.847 89.0969L124.002 87.7439H127.475V95.507H132.341V98.3904H124.002L123.869 96.5716Z" fill="url(#paint4_linear)"/>
<path d="M133.669 87.7439H142.739V88.9416C142.739 90.3833 142.694 90.4055 139.597 90.4055C137.429 90.4055 137.429 90.4055 137.429 90.96V91.5145H142.296V93.9543H140.04C138.779 93.9543 137.628 94.0431 137.474 94.154C137.297 94.2649 137.208 94.6198 137.252 94.9746L137.319 95.6179L142.739 95.7509V98.3904H133.669V87.7439Z" fill="url(#paint5_linear)"/>
<path d="M144.508 87.7439H147.827C151.609 87.7439 152.428 87.9435 153.136 89.1191C153.689 90.0284 153.733 91.9138 153.224 92.9784C152.715 94.0209 151.41 94.6198 149.53 94.6198H148.048V98.3904H144.508V87.7439ZM149.972 91.6032C150.348 91.0709 149.972 90.4721 149.154 90.2946C148.247 90.095 148.048 90.2946 148.048 91.3371V92.2465L148.866 92.1134C149.331 92.0247 149.818 91.8029 149.972 91.6032Z" fill="url(#paint6_linear)"/>
<path d="M155.348 87.7439H158.888V95.4848L163.865 95.6179L163.998 98.3904H155.348V87.7439Z" fill="url(#paint7_linear)"/>
<path d="M164.418 98.0134C164.44 97.7916 165.258 95.4183 166.254 92.7345L168.09 87.8549H172.006L173.952 93.0672C175.036 95.9285 175.921 98.3018 175.921 98.3461C175.921 98.3683 175.08 98.3905 174.063 98.3905H172.205L171.939 97.6142L171.674 96.8157L168.311 96.9488L168.134 97.6807L167.935 98.3905H166.188C164.639 98.3905 164.418 98.3461 164.418 98.0134ZM170.7 93.5774C170.612 93.2225 170.413 92.6014 170.28 92.18L170.015 91.4037L169.639 92.668C169.439 93.3556 169.285 93.9766 169.285 94.0431C169.285 94.1097 169.639 94.1762 170.059 94.1762C170.811 94.1762 170.833 94.154 170.7 93.5774Z" fill="url(#paint8_linear)"/>
<path d="M178.576 94.0653L176.585 91.0709C175.501 89.4296 174.594 88.01 174.594 87.9213C174.594 87.8104 175.479 87.7439 176.563 87.7439H178.531L179.438 89.2965C179.947 90.1615 180.39 90.8491 180.434 90.8491C180.478 90.8491 180.921 90.1615 181.429 89.2965L182.358 87.7439H184.217C185.411 87.7439 186.097 87.8326 186.097 87.9879C186.097 88.1209 185.234 89.5405 184.172 91.1375L182.226 94.0653L182.159 96.2389L182.071 98.3904H178.576V94.0653Z" fill="url(#paint9_linear)"/>
<path d="M172.581 79.9143C169.174 78.9383 167.404 76.4098 167.449 72.5504C167.493 67.8925 171.121 62.0591 176.695 57.6896C182.005 53.5197 186.23 51.9449 190.19 52.699C193.132 53.2535 194.415 55.0058 194.238 58.2441C194.127 60.1738 193.619 61.4602 192.402 62.9019C189.482 66.4286 184.925 68.4248 178.62 68.935L175.434 69.2011L174.704 70.6651C172.315 75.4117 173.067 77.9846 176.85 77.9846C179.571 77.9846 182.58 76.7869 186.385 74.2139C190.19 71.641 193.375 68.5579 196.826 64.1219C199.614 60.5287 202.047 57.5787 202.246 57.5787C202.357 57.5787 202.578 57.7339 202.777 57.9114C203.02 58.1775 203.065 58.3993 202.91 58.7986C202.622 59.5305 197.733 65.7854 195.388 68.4248C190.698 73.6594 184.858 77.8072 179.682 79.5372C177.89 80.1583 174.107 80.3357 172.581 79.9143ZM179.726 66.1403C182.182 64.8538 187.778 59.9741 189.017 58.0445C189.725 56.8911 189.902 54.9614 189.305 54.4734C188.553 53.8524 186.429 54.8283 184.593 56.6471C182.403 58.8208 176.806 66.1181 176.806 66.8057C176.806 67.1162 178.664 66.6948 179.726 66.1403Z" fill="url(#paint10_linear)"/>
<path d="M149.397 49.0174C147.185 47.1543 148.468 42.1859 151.477 41.0325C154.175 40.0122 156.454 41.5648 156.454 44.4483C156.454 47.3539 154.264 49.5941 151.388 49.5941C150.304 49.5941 149.95 49.5054 149.397 49.0174Z" fill="url(#paint11_linear)"/>
<path d="M56.9946 46.5106C56.1318 45.9783 55.8 45.0689 55.8 43.2723C55.8 40.3667 57.8131 38.1708 60.4235 38.1708C62.7241 38.193 63.8302 39.3464 63.8302 41.7197C63.8302 44.0042 62.6799 45.823 60.7332 46.6437C59.6713 47.0651 57.8131 47.0208 56.9946 46.5106Z" fill="url(#paint12_linear)"/>
<path d="M82.2486 44.6159C77.9177 41.4084 75.2126 39.4079 62.0883 29.7166C57.8464 26.5841 54.3841 23.9724 54.3843 23.9111C54.393 23.8486 54.69 23.4745 55.0446 23.0748C55.3979 22.6665 58.0761 19.5875 61.0045 16.2371L66.3155 10.1292L95.7645 6L102.228 10.2296C105.78 12.5488 108.968 14.6303 109.305 14.8544C110.63 15.7185 110.997 15.9733 111.036 16.0641C111.051 16.1143 110.683 16.6647 110.201 17.2748C109.719 17.8935 106.82 21.6422 103.751 25.6073C100.682 29.581 96.7925 34.6148 95.0975 36.7948C93.4037 38.9834 90.8152 42.3298 89.3521 44.2323C87.8805 46.136 86.6238 47.7034 86.5627 47.7032C86.4942 47.7128 84.5549 46.3223 82.2486 44.6159ZM87.4711 41.3813C88.0705 38.9175 88.5488 36.8381 88.5381 36.7608C88.5189 36.6235 88.0704 35.409 84.9715 27.1992C84.3229 25.4878 83.627 23.6255 83.4185 23.0686C83.2088 22.503 83.0231 22.0479 82.9975 22.0515C82.9718 22.0551 82.928 22.3674 82.9012 22.7386C82.867 23.1197 82.6943 25.2 82.5163 27.3685C81.9466 34.0541 81.6691 37.5752 81.6918 37.7383C81.7026 37.8155 82.523 39.3191 83.5175 41.0695C84.5035 42.8211 85.5344 44.6451 85.8018 45.1238C86.0681 45.594 86.3102 45.9537 86.3409 45.9232C86.3703 45.8841 86.8803 43.844 87.4711 41.3813ZM83.0052 41.9025C81.8916 39.9238 80.9031 38.2163 80.8093 38.107C80.7155 37.9976 78.0952 35.4778 74.9921 32.5006C71.8817 29.5333 68.9689 26.7307 68.5045 26.2796C67.4052 25.2176 67.3955 25.2102 67.876 25.9653C68.0998 26.3189 68.6801 27.2262 69.1594 27.9727C70.0085 29.306 72.0948 32.5657 74.9268 36.9807L76.3221 39.1649L79.5993 41.5751C84.5302 45.2059 85.0071 45.559 85.0206 45.5308C85.0366 45.5199 84.1285 43.8886 83.0052 41.9025ZM91.4775 40.0671L94.0587 36.7305L94.3218 35.8624C94.6231 34.8927 97.0774 26.7617 97.831 24.215C98.1065 23.3102 98.4412 22.2046 98.5783 21.7479C98.7081 21.301 98.7787 20.9936 98.7198 21.0719C98.6609 21.1501 96.6871 24.5241 94.3336 28.5551C91.9727 32.5958 89.9141 36.1129 89.7507 36.3808C89.5958 36.6475 89.3715 37.2302 89.2589 37.6747C88.8802 39.1539 87.4374 45.1482 87.4445 45.1997C87.4529 45.2598 87.5646 45.1216 91.4775 40.0671ZM81.1524 33.553C81.2718 32.0926 81.4585 29.8616 81.5615 28.596C81.673 27.3292 81.8636 25.0015 82.0006 23.4161L82.2369 20.5395L77.4821 21.1799C74.8699 21.5374 72.7126 21.8399 72.6978 21.8595C72.6831 21.879 74.509 25.149 76.7557 29.1211C79.0023 33.0933 80.865 36.3143 80.8859 36.2764C80.9154 36.2373 81.0329 35.0134 81.1524 33.553ZM90.2772 29.8238C91.7732 23.647 92.8804 19.0646 92.8768 19.0389C92.8744 19.0217 90.7147 19.307 88.0694 19.6779C83.5408 20.3129 83.2766 20.3587 83.3397 20.4986C83.4405 20.7207 84.1425 22.5646 85.1305 25.2083C87.0363 30.3044 88.8198 35.024 88.8879 35.1369C88.9243 35.2105 89.117 34.5886 89.3386 33.6738C89.5491 32.8044 89.9714 31.074 90.2772 29.8238ZM73.4122 36.1956C73.3332 36.0667 72.6677 35.0489 71.9524 33.9243C71.2371 32.7997 69.7432 30.4718 68.6386 28.7456C67.5353 27.028 66.2507 25.012 65.7811 24.2729L64.9211 22.9236L60.2383 23.5802L60.5406 23.8703C71.8018 34.7853 73.4959 36.4201 73.5301 36.4153C73.5558 36.4117 73.4986 36.3148 73.4122 36.1956ZM96.6815 32.1893C97.0183 31.5996 97.575 30.6466 97.9045 30.0667C98.5177 29.0183 100.69 25.2491 103.556 20.2626C104.408 18.7957 105.146 17.5198 105.204 17.4329C105.303 17.2702 105.191 17.2773 102.965 17.5893L100.62 17.9182L99.803 20.64C99.3558 22.1288 98.4838 25.0159 97.8772 27.052C96.1466 32.798 96.0022 33.2645 96.0364 33.2597C96.0535 33.2573 96.335 32.7716 96.6815 32.1893ZM78.7417 34.3547C78.3976 33.7643 77.2049 31.6567 76.0902 29.6694C74.9668 27.6833 73.5323 25.1547 72.8964 24.0365L71.75 22.0099L68.9128 22.3814L66.0682 22.7628L66.8117 23.4635C67.2151 23.8531 68.0414 24.6472 68.6557 25.2348C71.1554 27.6403 74.0159 30.3802 77.1068 33.3328C77.9429 34.1342 78.7692 34.9283 78.9606 35.1115C79.1422 35.2872 79.3018 35.4311 79.319 35.4287C79.3361 35.4263 79.076 34.9378 78.7417 34.3547ZM94.3967 26.7526C96.6162 22.9504 98.6674 19.4431 98.9489 18.9574L99.4724 18.0791L96.6326 18.4948L93.7854 18.9202L92.3848 24.7162C90.1742 33.8454 90.1543 33.9532 90.2551 33.7991C90.314 33.7208 92.1771 30.5548 94.3967 26.7526ZM103.355 24.7091C104.923 22.6868 106.994 19.9171 107.909 18.7127C107.909 18.7127 109.182 16.8908 109.416 16.6962C109.65 16.5016 109.416 16.6962 107.948 16.8908C106.479 17.0854 106.356 17.1226 106.356 17.1226L105.113 19.2831C104.432 20.4722 102.885 23.1563 101.676 25.2507C100.467 27.3452 99.2584 29.4482 98.9917 29.9143C98.7176 30.3902 98.387 30.9615 98.2457 31.2C98.1129 31.4374 98.5693 30.8922 99.2567 29.9996C99.944 29.107 101.786 26.7314 103.355 24.7091ZM67.5349 31.8489C65.7189 30.0912 63.1036 27.5444 61.7105 26.1911L59.1865 23.7364L57.6028 23.9585L56.0178 24.172L56.8448 24.7822C58.312 25.8539 66.0652 31.5738 68.4409 33.3405C69.7154 34.2817 70.7741 35.0519 70.7912 35.0495C70.8169 35.0459 69.3508 33.6066 67.5349 31.8489ZM59.9202 20.5451C60.4388 19.2562 60.944 17.9955 61.0475 17.736L61.236 17.2721L61.0188 17.53C60.8985 17.6694 59.7699 18.965 58.505 20.411C57.2402 21.857 56.1557 23.094 56.0956 23.1637C56.0072 23.2811 56.2236 23.2682 57.4906 23.0906L58.9887 22.8805L59.9202 20.5451ZM63.5913 19.3304C63.0557 17.8044 62.605 16.5114 62.571 16.455C62.5467 16.4059 62.0308 17.5894 61.4209 19.101C60.8197 20.6114 60.2431 22.0484 60.1384 22.2993L59.9647 22.7437L64.5447 22.1015L63.5913 19.3304ZM72.4764 18.0146C73.474 14.4625 73.4343 14.6168 73.3253 14.7108C73.2787 14.7524 72.3516 15.6785 71.2737 16.7746C70.1969 17.8792 68.6984 19.4018 67.9417 20.1728C67.1851 20.9438 66.513 21.633 66.4541 21.7113C66.3572 21.8299 66.7106 21.7978 68.9853 21.4614L71.6185 21.0659L72.4764 18.0146ZM81.4602 19.5372C80.1667 18.3974 74.5796 13.8788 74.5354 13.9374C74.4839 14.0059 72.7237 20.2285 72.5997 20.7796L72.549 20.9792L81.6491 19.7032L81.4602 19.5372ZM92.6491 17.9684C92.5907 17.8628 92.0921 17.0403 91.529 16.1306C90.9658 15.2209 90.1534 13.8999 89.7228 13.1904C89.2837 12.482 88.898 11.9061 88.8552 11.9121C88.7879 11.9303 84.0518 18.7189 83.8084 19.1642L83.6695 19.4199L92.7524 18.1464L92.6491 17.9684ZM98.8541 17.2121C98.6297 17.0423 90.2439 12.2949 90.2218 12.3242C90.2059 12.3352 90.3226 12.5463 90.4698 12.7882C90.6924 13.1332 92.3076 15.7677 93.4727 17.6779L93.6856 18.0155L96.3137 17.647C97.9574 17.4166 98.9114 17.2478 98.8541 17.2121ZM105.081 16.0503C104.933 15.8611 103.985 14.6378 102.974 13.3273C101.962 12.0167 101.125 10.9616 101.118 10.9714C101.103 10.991 101.015 12.3595 100.913 14.0099L100.74 17.0265L105.345 16.3807L105.081 16.0503ZM109.087 15.7336C108.614 15.4062 102.837 11.6578 102.803 11.6626C102.786 11.665 103.567 12.7016 104.545 13.9556L106.313 16.245L107.768 16.041C109.001 15.8681 109.204 15.8222 109.087 15.7336ZM85.4096 15.3088C86.9139 13.138 88.137 11.3304 88.1311 11.2875C88.1263 11.2531 86.556 10.6946 84.6424 10.053L81.156 8.897L78.0884 10.9982L75.0221 13.108L77.9094 15.4767C79.4958 16.7767 81.1918 18.175 81.6758 18.5796C82.1599 18.9842 82.588 19.3003 82.621 19.287C82.6529 19.265 83.9139 17.4783 85.4096 15.3088ZM67.6623 19.2321C68.9082 17.9637 70.7723 16.0575 71.8048 15.0115C72.8362 13.957 73.6836 13.0857 73.6995 13.0747C73.7376 13.0344 71.3095 10.3913 71.2325 10.4021C71.164 10.4118 63.1812 15.197 63.1211 15.2667C63.061 15.3363 65.2554 21.5644 65.3239 21.5548C65.3667 21.5488 66.4163 20.5004 67.6623 19.2321ZM100.112 13.3961C100.207 11.5717 100.277 10.0744 100.258 10.0596C100.238 10.0448 99.448 9.82317 98.4965 9.57162C97.5536 9.31886 95.5138 8.77368 93.981 8.35866C92.4481 7.94364 91.1534 7.60897 91.1191 7.61377C91.0763 7.61977 90.6804 8.34898 90.2461 9.24105L89.4502 10.8575L89.676 10.9746C89.7906 11.046 92.1116 12.3567 94.8242 13.91C97.5357 15.4546 99.7969 16.7124 99.8397 16.7064C99.8923 16.7078 100.007 15.2131 100.112 13.3961ZM76.8899 10.7901L79.3168 9.10238L75.7898 9.59692C73.8453 9.86081 72.2553 10.1012 72.2589 10.127C72.2697 10.2042 74.37 12.4995 74.4202 12.4837C74.4459 12.4801 75.5533 11.7211 76.8899 10.7901ZM89.3566 9.1208C89.7306 8.35967 90.0504 7.71112 90.053 7.66701C90.0642 7.6217 88.527 7.80224 86.5335 8.0905L82.9979 8.58623L85.7931 9.5417C87.3329 10.0695 88.6054 10.4948 88.6311 10.4912C88.658 10.4962 88.9814 9.87335 89.3566 9.1208ZM67.8872 11.3874L69.2969 10.5423L66.8499 10.8329L65.8341 11.999C65.2771 12.6371 64.828 13.1725 64.8304 13.1896C64.834 13.2154 65.5125 12.8228 67.8872 11.3874ZM97.9011 8.4302C97.7938 8.34901 97.1985 7.96002 96.5836 7.55627L95.4686 6.82018L93.0188 7.21617L95.5129 7.89013C96.8821 8.2581 98.0242 8.56169 98.051 8.56667C98.0682 8.56427 98.0072 8.50282 97.9011 8.4302Z" fill="url(#paint13_linear)"/>
<path d="M115.573 120.66C113.427 120.083 111.879 118.974 111.038 117.377C110.64 116.623 110.551 116.113 110.551 114.25C110.551 112.231 110.618 111.899 111.237 110.59C113.162 106.487 116.878 103.936 120.816 103.936C123.537 103.958 125.019 104.912 125.373 106.886C125.992 110.124 121.922 113.54 118.36 112.786C116.303 112.342 115.175 110.479 116.657 109.947C117.055 109.814 117.63 109.703 117.962 109.703C119.046 109.703 119.931 108.217 119.245 107.529C118.449 106.731 116.568 107.551 114.821 109.459C112.343 112.143 111.635 115.115 113.007 117.044C115.175 120.128 120.617 120.394 124.842 117.643C127.806 115.736 130.417 112.963 133.005 109.037C134.244 107.13 135.438 105.023 135.438 104.712C135.438 104.646 134.664 104.601 133.713 104.601C131.633 104.601 131.169 104.357 131.279 103.271L131.346 102.494L138.933 102.428C146.035 102.383 146.499 102.405 146.521 102.76C146.565 103.603 146.433 104.269 146.189 104.424C146.057 104.513 144.862 104.601 143.513 104.601L141.079 104.624L138.867 107.773C135.261 112.897 131.036 116.8 126.678 119.019C123.205 120.771 118.559 121.481 115.573 120.66Z" stroke="#181818" stroke-opacity="0.6" stroke-width="10" mask="url(#path-1-outside-1)"/>
<path d="M50.9996 103.825C47.5707 102.893 45.5577 100.498 45.5355 97.2814C45.5134 95.2409 46.3098 93.6661 48.4777 91.4924C51.1987 88.7864 54.2073 87.0342 61.6402 83.8624C63.5648 83.0195 65.423 82.1101 65.7769 81.8218C66.4406 81.2451 69.6704 75.1012 69.2943 75.1012C69.1616 75.1012 69.0731 75.1899 69.0731 75.2786C69.0731 75.8331 67.3476 77.3857 65.9318 78.0733C64.6045 78.7609 64.1399 78.8718 62.9011 78.8718C59.3616 78.8718 56.6849 76.0771 56.6849 72.3951C56.6849 71.8185 56.6185 71.3305 56.5522 71.3305C56.4637 71.3305 55.5346 72.1733 54.4727 73.1936C49.0086 78.4725 44.6507 80.0252 41.3988 77.8737C39.5184 76.6316 39.0317 73.3932 40.1599 69.556C40.4697 68.5135 40.6909 67.6485 40.6687 67.6042C40.6245 67.582 39.4078 68.8906 37.9256 70.5098C30.3158 78.8939 26.7984 80.9124 23.6129 78.6944C20.914 76.809 20.9583 73.1936 23.7899 68.4026C24.9844 66.3621 26.4666 64.3437 29.9397 59.9741C32.9261 56.2257 33.258 55.6933 32.9925 54.9836C32.7492 54.3182 32.3731 54.3403 30.9573 55.0501C27.5727 56.7802 23.3917 60.6617 20.2504 65.0534C19.6088 65.9628 17.8833 69.6892 15.8481 74.6132C14.3217 78.3617 13.3263 79.0049 10.8929 77.9624C9.14525 77.2083 8.30463 77.6519 6.91095 80.1139C6.18094 81.356 5.71638 81.6887 5.20758 81.2673C4.74302 80.8902 4.96424 80.2692 6.84459 76.7647C7.7737 75.0568 9.65405 71.5744 11.0256 69.0015C12.3971 66.4508 14.2775 62.9019 15.2287 61.1719C17.0427 57.8226 27.2851 42.2299 30.2273 38.3262C33.0146 34.5999 35.1826 32.0935 37.5275 29.7646C39.8281 27.5243 43.6109 24.53 45.4692 23.5319C47.3495 22.4894 50.0262 22.5781 50.8226 23.7093C51.3093 24.4191 51.2429 26.9033 50.6899 28.5668C49.2077 33.0029 44.8719 39.413 40.0272 44.3148C36.5099 47.8859 31.9749 51.3016 27.5505 53.7193C26.5551 54.2738 25.5153 54.9836 25.2499 55.3163C24.7411 55.9595 24.0996 57.379 24.2544 57.5121C24.2987 57.5565 24.9181 57.0907 25.626 56.4475C28.7672 53.6749 32.3731 51.8118 34.6516 51.8118C35.9126 51.8118 37.439 52.6325 37.992 53.5862C38.6557 54.7396 38.5672 56.8245 37.7929 58.732C37.085 60.4843 34.5189 64.4545 31.7316 68.1587C28.9885 71.8184 27.7939 73.6151 27.3736 74.7463C26.8648 76.0549 26.9975 76.5207 27.816 76.6094C29.0991 76.7425 31.6431 74.5909 37.3947 68.5579C41.4873 64.2327 43.3455 61.8373 46.3762 56.8245C48.6768 53.0539 49.9378 51.5234 50.9775 51.2573C51.2651 51.1685 52.1278 51.3682 53.0348 51.7009L54.5612 52.2776L55.977 50.8358C56.7734 50.0374 57.4592 49.3719 57.5476 49.3719C57.8352 49.3719 58.2334 49.9043 58.2334 50.2592C58.2334 50.6362 57.0167 52.7655 52.1499 60.9057C47.261 69.0902 45.624 72.4617 45.624 74.3914C45.624 76.8312 48.0795 76.0327 52.3933 72.2177C55.6894 69.3121 57.5698 67.094 58.7865 64.6985C61.4189 59.5971 65.0469 56.0482 70.7543 52.9873C73.2762 51.6343 74.8469 51.1464 76.5723 51.1464C78.1872 51.1464 79.1606 51.59 79.8242 52.5881C80.2888 53.2979 80.6649 53.2979 81.5055 52.5881C82.3019 51.9227 82.9655 51.9005 84.6247 52.4772C85.8192 52.8986 85.952 52.8986 86.6156 52.5881C87.0138 52.3885 87.6111 51.8561 87.965 51.3682C88.6066 50.5253 89.2481 50.237 89.5357 50.7028C89.7569 51.0577 89.049 52.1888 86.5493 55.5824C83.7177 59.464 80.8418 63.8336 74.9796 73.2158C73.8956 74.9459 72.1038 78.6722 72.2807 78.8274C72.4135 78.9605 77.3909 75.6557 79.3597 74.103C82.2134 71.885 86.5935 67.1606 89.3587 63.3455C91.5488 60.329 95.0219 55.1832 101.636 45.0468C107.742 35.7532 113.693 29.1657 119.688 25.1289C122.563 23.1992 125.041 22.8887 126.258 24.3304C126.722 24.9071 126.811 25.2176 126.811 26.5041C126.811 28.2341 126.391 29.5871 125.063 32.2931C120.794 40.8325 111.945 49.8156 103.118 54.5178C101.282 55.4937 100.663 56.1148 99.9772 57.6674L99.579 58.5102L100.11 58.111C100.397 57.867 101.57 56.9576 102.72 56.0482C103.871 55.1388 105.618 54.0076 106.636 53.5197C108.206 52.7655 108.693 52.6325 109.954 52.6103C112.719 52.5881 114.069 53.808 114.047 56.3366C114.047 58.7986 112.587 61.7264 108.892 66.7835C103.517 74.103 102.698 75.4339 102.698 76.7203C102.698 77.2526 102.787 77.3192 103.45 77.3192C104.623 77.3192 106.658 75.8109 110.02 72.4395C115.175 67.2937 116.414 65.7632 118.051 62.547C121.258 56.2035 123.603 52.5659 128.846 45.7787C133.403 39.8788 137.12 35.4871 140.637 31.8717C147.03 25.2841 150.592 22.7556 153.445 22.7556C154.618 22.7556 154.795 22.8221 155.481 23.5097C156.166 24.1973 156.233 24.3747 156.233 25.5725C156.233 29.4097 153.091 35.4427 147.738 41.875C143.092 47.4423 136.987 52.455 131.456 55.2497C130.417 55.7821 129.355 56.4475 129.112 56.7136C128.492 57.4012 124.599 64.7651 123.448 67.3824C121.944 70.8647 120.617 74.6354 120.617 75.4339C120.617 76.7647 121.856 77.0308 123.802 76.0993C127.054 74.5466 134.819 66.606 137.319 62.2365C139.265 58.8651 141.301 55.7599 142.075 54.9392C143.159 53.808 143.955 53.6527 145.305 54.2294C146.942 54.9614 147.318 54.8727 148.711 53.3644C149.618 52.3885 150.061 52.0558 150.326 52.1667C150.946 52.4106 150.769 53.4975 149.84 54.9836C149.375 55.7377 148.158 57.8005 147.163 59.5749C146.145 61.3493 144.597 63.9444 143.734 65.3418C141.389 69.0902 139.995 71.641 139.133 73.7703C137.783 77.0752 137.827 78.4282 139.288 78.4282C140.902 78.4282 143.623 76.432 147.517 72.373C149.795 70.0219 150.061 69.6447 152.184 65.7854C154.706 61.1719 155.414 59.7745 155.304 59.6858C155.259 59.6414 154.706 59.708 154.065 59.8189C153.423 59.952 152.472 60.0185 151.963 59.9741C151.145 59.9076 151.034 59.841 150.968 59.3309C150.857 58.3993 151.477 58.0888 154.463 57.5787C155.967 57.3125 157.228 57.0907 157.25 57.0685C162.228 49.5494 165.723 44.4923 167.36 42.4517C178.155 28.9217 185.588 22.689 189.946 23.5097C191.03 23.7093 191.451 24.4635 191.451 26.2601C191.428 29.9864 188.398 35.9972 183.708 41.6088C179.859 46.2223 173.532 51.834 169.086 54.5843C168.333 55.0501 167.78 55.4715 167.825 55.5381C167.891 55.5824 168.886 55.4715 170.059 55.2719C172.404 54.8727 173.045 54.9392 173.045 55.6046C173.045 56.5584 172.382 56.8245 168.267 57.4678C166.099 57.8005 164.197 58.1775 164.042 58.3328C163.776 58.5768 162.891 60.1516 158.954 67.2271C156.941 70.8425 151.366 81.7331 151.366 82.0436C151.366 82.1323 152.184 82.1989 153.202 82.2432L155.016 82.3098V84.306H139.973V82.3098L143.645 82.0879L144.729 79.7147C145.769 77.3857 145.88 76.8534 145.083 77.7406C144.398 78.4947 141.677 80.2248 140.239 80.8015C138.314 81.6 136.19 81.6222 134.664 80.868C132.739 79.9143 131.987 78.1842 132.209 75.212C132.275 74.2361 132.54 72.7944 132.784 71.9959C133.027 71.1974 133.226 70.5098 133.226 70.4654C133.226 70.4211 131.965 71.6188 130.417 73.1271C126.169 77.2748 123.161 79.2045 120.573 79.4707C118.825 79.6259 117.276 78.7609 116.038 76.9199C114.931 75.2786 114.533 73.6372 114.71 71.4636L114.843 69.9553L111.149 73.726C109.113 75.7887 106.813 77.9624 106.061 78.5169C103.03 80.7128 100.132 80.7128 98.318 78.5169C96.8359 76.6981 96.8801 74.3248 98.4729 70.9534C99.6896 68.4249 101.282 66.0959 104.888 61.5711C106.614 59.4418 108.229 57.2681 108.494 56.7358C108.981 55.8264 108.981 55.7599 108.605 55.4715C107.299 54.5178 102.344 58.0001 98.3844 62.6801C95.3979 66.229 94.6016 67.6708 91.7036 74.7684C90.4869 77.7628 90.0002 78.5613 89.1596 79.0049C88.4296 79.382 87.7217 79.2932 86.1953 78.6056C85.6423 78.3838 85.0229 78.2286 84.8016 78.3173C84.1601 78.5169 83.3195 79.4485 82.5895 80.7571C82.2134 81.4004 81.8152 81.9992 81.6825 82.0879C81.3064 82.3319 80.5764 81.977 80.5764 81.5334C80.5764 81.0677 82.6558 76.9865 85.3326 72.1733L87.1687 68.9128L84.0274 72.0403C80.0897 75.9883 78.5633 77.1861 74.4044 79.5372C72.0153 80.8902 71.0198 81.5778 70.8649 81.9771C70.7543 82.2876 69.8916 84.5278 68.9625 86.9676C68.0334 89.4074 66.5291 92.9563 65.6 94.8416C64.0293 98.0799 63.8302 98.3905 62.0162 100.187C60.5341 101.673 59.7377 102.272 58.4546 102.893C55.7558 104.157 53.3666 104.468 50.9996 103.825ZM52.9242 99.6104C55.3355 98.3905 58.0122 95.5514 60.7774 91.2928C62.2153 89.1191 64.7593 84.4612 64.6266 84.306C64.4718 84.1729 59.8041 86.1469 56.7955 87.633C51.8181 90.0729 48.522 92.6236 47.438 94.8638C46.8186 96.1503 46.7965 98.0134 47.3716 98.9672C48.2565 100.409 50.7784 100.697 52.9242 99.6104ZM65.5557 76.432C67.6573 75.3451 69.8252 72.5282 74.3823 64.9425C78.5412 58.0001 79.6915 55.2719 79.0057 54.0742C78.7403 53.5862 78.4969 53.4531 77.6342 53.4088C75.599 53.2757 73.8956 54.6509 70.2455 59.3974C68.144 62.1034 65.6663 65.7854 64.5824 67.7816C62.3038 71.9515 61.4853 75.8996 62.7241 76.6981C63.2329 77.0087 64.6708 76.8756 65.5557 76.432ZM168.687 52.9652C173.466 50.1261 180.213 43.8491 183.686 39.0359C187.159 34.245 189.592 29.5206 189.814 27.1473C190.212 22.6669 185.876 24.6409 180.478 31.4059C179.66 32.4484 177.824 35.0435 176.408 37.2171C173.598 41.4536 166.342 53.2313 166.099 53.8745C165.9 54.4512 166.586 54.2072 168.687 52.9652ZM133.558 52.3441C137.363 50.1261 138.336 49.3719 141.721 46.0671C148.557 39.3686 154.153 30.8292 154.795 26.1492C155.149 23.3988 153.268 23.2214 150.26 25.6834C148.888 26.8146 145.659 30.4078 143.889 32.8033C139.863 38.2374 129.908 54.0298 130.505 54.0298C130.616 54.0298 131.987 53.2757 133.558 52.3441ZM104.49 51.6565C109.224 48.9949 115.861 42.9618 119.688 37.8604C123.869 32.3153 126.125 26.9033 124.953 25.3063C124.51 24.6853 123.227 24.7962 122.121 25.5281C119.533 27.236 114.998 32.6036 111.171 38.4592C108.029 43.228 102.477 52.2997 102.477 52.6103C102.477 52.7877 102.654 52.699 104.49 51.6565ZM30.2494 50.0817C33.8552 47.7528 37.0629 44.9802 40.8015 40.9656C43.7437 37.816 46.0886 34.5777 47.7256 31.3615C49.9599 27.0364 50.2475 24.774 48.6989 24.2195C46.6637 23.5097 40.9121 29.4762 35.1826 38.2818C32.5058 42.3852 26.8205 51.6343 26.8205 51.9005C26.8205 52.1001 28.4575 51.2573 30.2494 50.0817Z" stroke="#181818" stroke-opacity="0.6" stroke-width="10" mask="url(#path-1-outside-1)"/>
<path d="M114.202 98.3247C113.051 97.9477 111.68 96.4616 111.348 95.2195C110.861 93.5338 111.127 91.0718 111.901 89.8075C112.874 88.2549 114.202 87.6338 116.635 87.6338C118.781 87.6338 119.843 88.0553 121.015 89.3861C122.276 90.8278 122.497 94.0218 121.48 96.1289C121.192 96.7056 120.617 97.3488 119.997 97.7924C119.024 98.4578 118.825 98.5022 116.967 98.5465C115.883 98.5687 114.622 98.48 114.202 98.3247ZM117.719 95.3304C118.449 94.5984 118.736 93.2011 118.405 91.959C117.896 90.0293 115.706 89.8297 114.954 91.6263C113.825 94.3766 115.905 97.1714 117.719 95.3304Z" stroke="#181818" stroke-opacity="0.6" stroke-width="10" mask="url(#path-1-outside-1)"/>
<path d="M100.154 97.681C100.088 97.2817 100.044 94.9085 100.088 92.4021L100.154 87.8551L103.251 87.7886C107.432 87.6999 108.14 87.8108 109.047 88.7867C109.689 89.4521 109.777 89.6961 109.777 90.6942C109.777 91.9585 109.246 93.0897 108.45 93.5111L107.963 93.7773L108.406 94.243C109.003 94.9084 110.441 97.5701 110.441 98.0359C110.441 98.3686 110.198 98.3907 108.538 98.3464L106.614 98.2798L105.574 96.3945C104.158 93.8216 103.849 93.7994 103.76 96.328L103.694 98.2798L100.287 98.4129L100.154 97.681ZM105.663 91.7367C106.924 91.2709 106.083 90.1841 104.446 90.1841C103.849 90.1841 103.804 90.2284 103.804 91.0713C103.804 91.9141 103.849 91.9585 104.446 91.9585C104.8 91.9585 105.353 91.8698 105.663 91.7367Z" stroke="#181818" stroke-opacity="0.6" stroke-width="10" mask="url(#path-1-outside-1)"/>
<path d="M123.869 96.5716C123.67 94.1983 123.67 90.8491 123.847 89.0969L124.002 87.7439H127.475V95.507H132.341V98.3904H124.002L123.869 96.5716Z" stroke="#181818" stroke-opacity="0.6" stroke-width="10" mask="url(#path-1-outside-1)"/>
<path d="M133.669 87.7439H142.739V88.9416C142.739 90.3833 142.694 90.4055 139.597 90.4055C137.429 90.4055 137.429 90.4055 137.429 90.96V91.5145H142.296V93.9543H140.04C138.779 93.9543 137.628 94.0431 137.474 94.154C137.297 94.2649 137.208 94.6198 137.252 94.9746L137.319 95.6179L142.739 95.7509V98.3904H133.669V87.7439Z" stroke="#181818" stroke-opacity="0.6" stroke-width="10" mask="url(#path-1-outside-1)"/>
<path d="M144.508 87.7439H147.827C151.609 87.7439 152.428 87.9435 153.136 89.1191C153.689 90.0284 153.733 91.9138 153.224 92.9784C152.715 94.0209 151.41 94.6198 149.53 94.6198H148.048V98.3904H144.508V87.7439ZM149.972 91.6032C150.348 91.0709 149.972 90.4721 149.154 90.2946C148.247 90.095 148.048 90.2946 148.048 91.3371V92.2465L148.866 92.1134C149.331 92.0247 149.818 91.8029 149.972 91.6032Z" stroke="#181818" stroke-opacity="0.6" stroke-width="10" mask="url(#path-1-outside-1)"/>
<path d="M155.348 87.7439H158.888V95.4848L163.865 95.6179L163.998 98.3904H155.348V87.7439Z" stroke="#181818" stroke-opacity="0.6" stroke-width="10" mask="url(#path-1-outside-1)"/>
<path d="M164.418 98.0134C164.44 97.7916 165.258 95.4183 166.254 92.7345L168.09 87.8549H172.006L173.952 93.0672C175.036 95.9285 175.921 98.3018 175.921 98.3461C175.921 98.3683 175.08 98.3905 174.063 98.3905H172.205L171.939 97.6142L171.674 96.8157L168.311 96.9488L168.134 97.6807L167.935 98.3905H166.188C164.639 98.3905 164.418 98.3461 164.418 98.0134ZM170.7 93.5774C170.612 93.2225 170.413 92.6014 170.28 92.18L170.015 91.4037L169.639 92.668C169.439 93.3556 169.285 93.9766 169.285 94.0431C169.285 94.1097 169.639 94.1762 170.059 94.1762C170.811 94.1762 170.833 94.154 170.7 93.5774Z" stroke="#181818" stroke-opacity="0.6" stroke-width="10" mask="url(#path-1-outside-1)"/>
<path d="M178.576 94.0653L176.585 91.0709C175.501 89.4296 174.594 88.01 174.594 87.9213C174.594 87.8104 175.479 87.7439 176.563 87.7439H178.531L179.438 89.2965C179.947 90.1615 180.39 90.8491 180.434 90.8491C180.478 90.8491 180.921 90.1615 181.429 89.2965L182.358 87.7439H184.217C185.411 87.7439 186.097 87.8326 186.097 87.9879C186.097 88.1209 185.234 89.5405 184.172 91.1375L182.226 94.0653L182.159 96.2389L182.071 98.3904H178.576V94.0653Z" stroke="#181818" stroke-opacity="0.6" stroke-width="10" mask="url(#path-1-outside-1)"/>
<path d="M172.581 79.9143C169.174 78.9383 167.404 76.4098 167.449 72.5504C167.493 67.8925 171.121 62.0591 176.695 57.6896C182.005 53.5197 186.23 51.9449 190.19 52.699C193.132 53.2535 194.415 55.0058 194.238 58.2441C194.127 60.1738 193.619 61.4602 192.402 62.9019C189.482 66.4286 184.925 68.4248 178.62 68.935L175.434 69.2011L174.704 70.6651C172.315 75.4117 173.067 77.9846 176.85 77.9846C179.571 77.9846 182.58 76.7869 186.385 74.2139C190.19 71.641 193.375 68.5579 196.826 64.1219C199.614 60.5287 202.047 57.5787 202.246 57.5787C202.357 57.5787 202.578 57.7339 202.777 57.9114C203.02 58.1775 203.065 58.3993 202.91 58.7986C202.622 59.5305 197.733 65.7854 195.388 68.4248C190.698 73.6594 184.858 77.8072 179.682 79.5372C177.89 80.1583 174.107 80.3357 172.581 79.9143ZM179.726 66.1403C182.182 64.8538 187.778 59.9741 189.017 58.0445C189.725 56.8911 189.902 54.9614 189.305 54.4734C188.553 53.8524 186.429 54.8283 184.593 56.6471C182.403 58.8208 176.806 66.1181 176.806 66.8057C176.806 67.1162 178.664 66.6948 179.726 66.1403Z" stroke="#181818" stroke-opacity="0.6" stroke-width="10" mask="url(#path-1-outside-1)"/>
<path d="M149.397 49.0174C147.185 47.1543 148.468 42.1859 151.477 41.0325C154.175 40.0122 156.454 41.5648 156.454 44.4483C156.454 47.3539 154.264 49.5941 151.388 49.5941C150.304 49.5941 149.95 49.5054 149.397 49.0174Z" stroke="#181818" stroke-opacity="0.6" stroke-width="10" mask="url(#path-1-outside-1)"/>
<path d="M56.9946 46.5106C56.1318 45.9783 55.8 45.0689 55.8 43.2723C55.8 40.3667 57.8131 38.1708 60.4235 38.1708C62.7241 38.193 63.8302 39.3464 63.8302 41.7197C63.8302 44.0042 62.6799 45.823 60.7332 46.6437C59.6713 47.0651 57.8131 47.0208 56.9946 46.5106Z" stroke="#181818" stroke-opacity="0.6" stroke-width="10" mask="url(#path-1-outside-1)"/>
<path d="M82.2486 44.6159C77.9177 41.4084 75.2126 39.4079 62.0883 29.7166C57.8464 26.5841 54.3841 23.9724 54.3843 23.9111C54.393 23.8486 54.69 23.4745 55.0446 23.0748C55.3979 22.6665 58.0761 19.5875 61.0045 16.2371L66.3155 10.1292L95.7645 6L102.228 10.2296C105.78 12.5488 108.968 14.6303 109.305 14.8544C110.63 15.7185 110.997 15.9733 111.036 16.0641C111.051 16.1143 110.683 16.6647 110.201 17.2748C109.719 17.8935 106.82 21.6422 103.751 25.6073C100.682 29.581 96.7925 34.6148 95.0975 36.7948C93.4037 38.9834 90.8152 42.3298 89.3521 44.2323C87.8805 46.136 86.6238 47.7034 86.5627 47.7032C86.4942 47.7128 84.5549 46.3223 82.2486 44.6159ZM87.4711 41.3813C88.0705 38.9175 88.5488 36.8381 88.5381 36.7608C88.5189 36.6235 88.0704 35.409 84.9715 27.1992C84.3229 25.4878 83.627 23.6255 83.4185 23.0686C83.2088 22.503 83.0231 22.0479 82.9975 22.0515C82.9718 22.0551 82.928 22.3674 82.9012 22.7386C82.867 23.1197 82.6943 25.2 82.5163 27.3685C81.9466 34.0541 81.6691 37.5752 81.6918 37.7383C81.7026 37.8155 82.523 39.3191 83.5175 41.0695C84.5035 42.8211 85.5344 44.6451 85.8018 45.1238C86.0681 45.594 86.3102 45.9537 86.3409 45.9232C86.3703 45.8841 86.8803 43.844 87.4711 41.3813ZM83.0052 41.9025C81.8916 39.9238 80.9031 38.2163 80.8093 38.107C80.7155 37.9976 78.0952 35.4778 74.9921 32.5006C71.8817 29.5333 68.9689 26.7307 68.5045 26.2796C67.4052 25.2176 67.3955 25.2102 67.876 25.9653C68.0998 26.3189 68.6801 27.2262 69.1594 27.9727C70.0085 29.306 72.0948 32.5657 74.9268 36.9807L76.3221 39.1649L79.5993 41.5751C84.5302 45.2059 85.0071 45.559 85.0206 45.5308C85.0366 45.5199 84.1285 43.8886 83.0052 41.9025ZM91.4775 40.0671L94.0587 36.7305L94.3218 35.8624C94.6231 34.8927 97.0774 26.7617 97.831 24.215C98.1065 23.3102 98.4412 22.2046 98.5783 21.7479C98.7081 21.301 98.7787 20.9936 98.7198 21.0719C98.6609 21.1501 96.6871 24.5241 94.3336 28.5551C91.9727 32.5958 89.9141 36.1129 89.7507 36.3808C89.5958 36.6475 89.3715 37.2302 89.2589 37.6747C88.8802 39.1539 87.4374 45.1482 87.4445 45.1997C87.4529 45.2598 87.5646 45.1216 91.4775 40.0671ZM81.1524 33.553C81.2718 32.0926 81.4585 29.8616 81.5615 28.596C81.673 27.3292 81.8636 25.0015 82.0006 23.4161L82.2369 20.5395L77.4821 21.1799C74.8699 21.5374 72.7126 21.8399 72.6978 21.8595C72.6831 21.879 74.509 25.149 76.7557 29.1211C79.0023 33.0933 80.865 36.3143 80.8859 36.2764C80.9154 36.2373 81.0329 35.0134 81.1524 33.553ZM90.2772 29.8238C91.7732 23.647 92.8804 19.0646 92.8768 19.0389C92.8744 19.0217 90.7147 19.307 88.0694 19.6779C83.5408 20.3129 83.2766 20.3587 83.3397 20.4986C83.4405 20.7207 84.1425 22.5646 85.1305 25.2083C87.0363 30.3044 88.8198 35.024 88.8879 35.1369C88.9243 35.2105 89.117 34.5886 89.3386 33.6738C89.5491 32.8044 89.9714 31.074 90.2772 29.8238ZM73.4122 36.1956C73.3332 36.0667 72.6677 35.0489 71.9524 33.9243C71.2371 32.7997 69.7432 30.4718 68.6386 28.7456C67.5353 27.028 66.2507 25.012 65.7811 24.2729L64.9211 22.9236L60.2383 23.5802L60.5406 23.8703C71.8018 34.7853 73.4959 36.4201 73.5301 36.4153C73.5558 36.4117 73.4986 36.3148 73.4122 36.1956ZM96.6815 32.1893C97.0183 31.5996 97.575 30.6466 97.9045 30.0667C98.5177 29.0183 100.69 25.2491 103.556 20.2626C104.408 18.7957 105.146 17.5198 105.204 17.4329C105.303 17.2702 105.191 17.2773 102.965 17.5893L100.62 17.9182L99.803 20.64C99.3558 22.1288 98.4838 25.0159 97.8772 27.052C96.1466 32.798 96.0022 33.2645 96.0364 33.2597C96.0535 33.2573 96.335 32.7716 96.6815 32.1893ZM78.7417 34.3547C78.3976 33.7643 77.2049 31.6567 76.0902 29.6694C74.9668 27.6833 73.5323 25.1547 72.8964 24.0365L71.75 22.0099L68.9128 22.3814L66.0682 22.7628L66.8117 23.4635C67.2151 23.8531 68.0414 24.6472 68.6557 25.2348C71.1554 27.6403 74.0159 30.3802 77.1068 33.3328C77.9429 34.1342 78.7692 34.9283 78.9606 35.1115C79.1422 35.2872 79.3018 35.4311 79.319 35.4287C79.3361 35.4263 79.076 34.9378 78.7417 34.3547ZM94.3967 26.7526C96.6162 22.9504 98.6674 19.4431 98.9489 18.9574L99.4724 18.0791L96.6326 18.4948L93.7854 18.9202L92.3848 24.7162C90.1742 33.8454 90.1543 33.9532 90.2551 33.7991C90.314 33.7208 92.1771 30.5548 94.3967 26.7526ZM103.355 24.7091C104.923 22.6868 106.994 19.9171 107.909 18.7127C107.909 18.7127 109.182 16.8908 109.416 16.6962C109.65 16.5016 109.416 16.6962 107.948 16.8908C106.479 17.0854 106.356 17.1226 106.356 17.1226L105.113 19.2831C104.432 20.4722 102.885 23.1563 101.676 25.2507C100.467 27.3452 99.2584 29.4482 98.9917 29.9143C98.7176 30.3902 98.387 30.9615 98.2457 31.2C98.1129 31.4374 98.5693 30.8922 99.2567 29.9996C99.944 29.107 101.786 26.7314 103.355 24.7091ZM67.5349 31.8489C65.7189 30.0912 63.1036 27.5444 61.7105 26.1911L59.1865 23.7364L57.6028 23.9585L56.0178 24.172L56.8448 24.7822C58.312 25.8539 66.0652 31.5738 68.4409 33.3405C69.7154 34.2817 70.7741 35.0519 70.7912 35.0495C70.8169 35.0459 69.3508 33.6066 67.5349 31.8489ZM59.9202 20.5451C60.4388 19.2562 60.944 17.9955 61.0475 17.736L61.236 17.2721L61.0188 17.53C60.8985 17.6694 59.7699 18.965 58.505 20.411C57.2402 21.857 56.1557 23.094 56.0956 23.1637C56.0072 23.2811 56.2236 23.2682 57.4906 23.0906L58.9887 22.8805L59.9202 20.5451ZM63.5913 19.3304C63.0557 17.8044 62.605 16.5114 62.571 16.455C62.5467 16.4059 62.0308 17.5894 61.4209 19.101C60.8197 20.6114 60.2431 22.0484 60.1384 22.2993L59.9647 22.7437L64.5447 22.1015L63.5913 19.3304ZM72.4764 18.0146C73.474 14.4625 73.4343 14.6168 73.3253 14.7108C73.2787 14.7524 72.3516 15.6785 71.2737 16.7746C70.1969 17.8792 68.6984 19.4018 67.9417 20.1728C67.1851 20.9438 66.513 21.633 66.4541 21.7113C66.3572 21.8299 66.7106 21.7978 68.9853 21.4614L71.6185 21.0659L72.4764 18.0146ZM81.4602 19.5372C80.1667 18.3974 74.5796 13.8788 74.5354 13.9374C74.4839 14.0059 72.7237 20.2285 72.5997 20.7796L72.549 20.9792L81.6491 19.7032L81.4602 19.5372ZM92.6491 17.9684C92.5907 17.8628 92.0921 17.0403 91.529 16.1306C90.9658 15.2209 90.1534 13.8999 89.7228 13.1904C89.2837 12.482 88.898 11.9061 88.8552 11.9121C88.7879 11.9303 84.0518 18.7189 83.8084 19.1642L83.6695 19.4199L92.7524 18.1464L92.6491 17.9684ZM98.8541 17.2121C98.6297 17.0423 90.2439 12.2949 90.2218 12.3242C90.2059 12.3352 90.3226 12.5463 90.4698 12.7882C90.6924 13.1332 92.3076 15.7677 93.4727 17.6779L93.6856 18.0155L96.3137 17.647C97.9574 17.4166 98.9114 17.2478 98.8541 17.2121ZM105.081 16.0503C104.933 15.8611 103.985 14.6378 102.974 13.3273C101.962 12.0167 101.125 10.9616 101.118 10.9714C101.103 10.991 101.015 12.3595 100.913 14.0099L100.74 17.0265L105.345 16.3807L105.081 16.0503ZM109.087 15.7336C108.614 15.4062 102.837 11.6578 102.803 11.6626C102.786 11.665 103.567 12.7016 104.545 13.9556L106.313 16.245L107.768 16.041C109.001 15.8681 109.204 15.8222 109.087 15.7336ZM85.4096 15.3088C86.9139 13.138 88.137 11.3304 88.1311 11.2875C88.1263 11.2531 86.556 10.6946 84.6424 10.053L81.156 8.897L78.0884 10.9982L75.0221 13.108L77.9094 15.4767C79.4958 16.7767 81.1918 18.175 81.6758 18.5796C82.1599 18.9842 82.588 19.3003 82.621 19.287C82.6529 19.265 83.9139 17.4783 85.4096 15.3088ZM67.6623 19.2321C68.9082 17.9637 70.7723 16.0575 71.8048 15.0115C72.8362 13.957 73.6836 13.0857 73.6995 13.0747C73.7376 13.0344 71.3095 10.3913 71.2325 10.4021C71.164 10.4118 63.1812 15.197 63.1211 15.2667C63.061 15.3363 65.2554 21.5644 65.3239 21.5548C65.3667 21.5488 66.4163 20.5004 67.6623 19.2321ZM100.112 13.3961C100.207 11.5717 100.277 10.0744 100.258 10.0596C100.238 10.0448 99.448 9.82317 98.4965 9.57162C97.5536 9.31886 95.5138 8.77368 93.981 8.35866C92.4481 7.94364 91.1534 7.60897 91.1191 7.61377C91.0763 7.61977 90.6804 8.34898 90.2461 9.24105L89.4502 10.8575L89.676 10.9746C89.7906 11.046 92.1116 12.3567 94.8242 13.91C97.5357 15.4546 99.7969 16.7124 99.8397 16.7064C99.8923 16.7078 100.007 15.2131 100.112 13.3961ZM76.8899 10.7901L79.3168 9.10238L75.7898 9.59692C73.8453 9.86081 72.2553 10.1012 72.2589 10.127C72.2697 10.2042 74.37 12.4995 74.4202 12.4837C74.4459 12.4801 75.5533 11.7211 76.8899 10.7901ZM89.3566 9.1208C89.7306 8.35967 90.0504 7.71112 90.053 7.66701C90.0642 7.6217 88.527 7.80224 86.5335 8.0905L82.9979 8.58623L85.7931 9.5417C87.3329 10.0695 88.6054 10.4948 88.6311 10.4912C88.658 10.4962 88.9814 9.87335 89.3566 9.1208ZM67.8872 11.3874L69.2969 10.5423L66.8499 10.8329L65.8341 11.999C65.2771 12.6371 64.828 13.1725 64.8304 13.1896C64.834 13.2154 65.5125 12.8228 67.8872 11.3874ZM97.9011 8.4302C97.7938 8.34901 97.1985 7.96002 96.5836 7.55627L95.4686 6.82018L93.0188 7.21617L95.5129 7.89013C96.8821 8.2581 98.0242 8.56169 98.051 8.56667C98.0682 8.56427 98.0072 8.50282 97.9011 8.4302Z" stroke="#181818" stroke-opacity="0.6" stroke-width="10" mask="url(#path-1-outside-1)"/>
<defs>
<linearGradient id="paint0_linear" x1="79.2445" y1="10.475" x2="84.8017" y2="50.1088" gradientUnits="userSpaceOnUse">
<stop stop-color="white"/>
<stop offset="1" stop-color="white"/>
</linearGradient>
<linearGradient id="paint1_linear" x1="79.2445" y1="10.475" x2="84.8017" y2="50.1088" gradientUnits="userSpaceOnUse">
<stop stop-color="white"/>
<stop offset="1" stop-color="white"/>
</linearGradient>
<linearGradient id="paint2_linear" x1="79.2445" y1="10.475" x2="84.8017" y2="50.1088" gradientUnits="userSpaceOnUse">
<stop stop-color="white"/>
<stop offset="1" stop-color="white"/>
</linearGradient>
<linearGradient id="paint3_linear" x1="79.2445" y1="10.475" x2="84.8017" y2="50.1088" gradientUnits="userSpaceOnUse">
<stop stop-color="white"/>
<stop offset="1" stop-color="white"/>
</linearGradient>
<linearGradient id="paint4_linear" x1="79.2445" y1="10.475" x2="84.8017" y2="50.1088" gradientUnits="userSpaceOnUse">
<stop stop-color="white"/>
<stop offset="1" stop-color="white"/>
</linearGradient>
<linearGradient id="paint5_linear" x1="79.2445" y1="10.475" x2="84.8017" y2="50.1088" gradientUnits="userSpaceOnUse">
<stop stop-color="white"/>
<stop offset="1" stop-color="white"/>
</linearGradient>
<linearGradient id="paint6_linear" x1="79.2445" y1="10.475" x2="84.8017" y2="50.1088" gradientUnits="userSpaceOnUse">
<stop stop-color="white"/>
<stop offset="1" stop-color="white"/>
</linearGradient>
<linearGradient id="paint7_linear" x1="79.2445" y1="10.475" x2="84.8017" y2="50.1088" gradientUnits="userSpaceOnUse">
<stop stop-color="white"/>
<stop offset="1" stop-color="white"/>
</linearGradient>
<linearGradient id="paint8_linear" x1="79.2445" y1="10.475" x2="84.8017" y2="50.1088" gradientUnits="userSpaceOnUse">
<stop stop-color="white"/>
<stop offset="1" stop-color="white"/>
</linearGradient>
<linearGradient id="paint9_linear" x1="79.2445" y1="10.475" x2="84.8017" y2="50.1088" gradientUnits="userSpaceOnUse">
<stop stop-color="white"/>
<stop offset="1" stop-color="white"/>
</linearGradient>
<linearGradient id="paint10_linear" x1="79.2445" y1="10.475" x2="84.8017" y2="50.1088" gradientUnits="userSpaceOnUse">
<stop stop-color="white"/>
<stop offset="1" stop-color="white"/>
</linearGradient>
<linearGradient id="paint11_linear" x1="79.2445" y1="10.475" x2="84.8017" y2="50.1088" gradientUnits="userSpaceOnUse">
<stop stop-color="white"/>
<stop offset="1" stop-color="white"/>
</linearGradient>
<linearGradient id="paint12_linear" x1="79.2445" y1="10.475" x2="84.8017" y2="50.1088" gradientUnits="userSpaceOnUse">
<stop stop-color="white"/>
<stop offset="1" stop-color="white"/>
</linearGradient>
<linearGradient id="paint13_linear" x1="79.2445" y1="10.475" x2="84.8017" y2="50.1088" gradientUnits="userSpaceOnUse">
<stop stop-color="white"/>
<stop offset="1" stop-color="white"/>
</linearGradient>
</defs>
</svg>
